<?xml version="1.0" encoding="utf-8"?>
<!-- Generator: Adobe Illustrator 24.0.2, SVG Export Plug-In . SVG Version: 6.00 Build 0)  -->
<svg version="1.1" id="Layer_1" xmlns="http://www.w3.org/2000/svg" xmlns:xlink="http://www.w3.org/1999/xlink" x="0px" y="0px"
	 viewBox="0 0 424.9 322.6" style="enable-background:new 0 0 424.9 322.6;" xml:space="preserve">
<style type="text/css">
	.st0{fill:url(#SVGID_1_);}
	.st1{fill:#C7C2F0;}
	.st2{fill:#EFEEFF;}
	.st3{fill:#9173DC;}
	.st4{fill:#FF1541;}
	.st5{fill:url(#SVGID_2_);}
	.st6{fill:url(#SVGID_3_);}
	.st7{fill:#876BD7;}
	.st8{fill:url(#SVGID_4_);}
	.st9{fill:url(#SVGID_5_);}
	.st10{fill:url(#SVGID_6_);}
	.st11{fill:#EAE5FF;}
	.st12{fill:url(#SVGID_7_);}
	.st13{fill:url(#SVGID_8_);}
	.st14{fill:url(#SVGID_9_);}
	.st15{fill:url(#SVGID_10_);}
	.st16{fill:url(#SVGID_11_);}
	.st17{fill:url(#SVGID_12_);}
	.st18{fill:url(#SVGID_13_);}
	.st19{fill:#FFFFFF;}
	.st20{fill:#FFD258;}
	.st21{fill:url(#SVGID_14_);}
	.st22{fill:url(#SVGID_15_);}
	.st23{fill:#FFEEB6;}
	.st24{fill:url(#SVGID_16_);}
	.st25{fill:#1E035B;}
	.st26{fill:url(#SVGID_17_);}
	.st27{fill:url(#SVGID_18_);}
	.st28{fill:url(#SVGID_19_);}
	.st29{fill:#581CB3;}
	.st30{fill:url(#SVGID_20_);}
	.st31{fill:url(#SVGID_21_);}
	.st32{fill:url(#SVGID_22_);}
	.st33{fill:url(#SVGID_23_);}
	.st34{fill:url(#SVGID_24_);}
	.st35{fill:url(#SVGID_25_);}
	.st36{fill:#FF8D68;}
	.st37{fill:#6121C0;}
	.st38{fill:url(#SVGID_26_);}
	.st39{fill:#E7D9FF;}
	.st40{fill:#40347F;}
	.st41{fill:url(#SVGID_27_);}
	.st42{fill:#341C6E;}
	.st43{fill:url(#SVGID_28_);}
	.st44{fill:url(#SVGID_29_);}
	.st45{fill:url(#SVGID_30_);}
	.st46{fill:url(#SVGID_31_);}
	.st47{fill:url(#SVGID_32_);}
	.st48{fill:url(#SVGID_33_);}
	.st49{fill:url(#SVGID_34_);}
	.st50{fill:url(#SVGID_35_);}
	.st51{fill:url(#SVGID_36_);}
	.st52{fill:url(#SVGID_37_);}
	.st53{fill:url(#SVGID_38_);}
	.st54{fill:url(#SVGID_39_);}
	.st55{fill:url(#SVGID_40_);}
	.st56{fill:#43468A;}
	.st57{fill:url(#SVGID_41_);}
	.st58{fill:url(#SVGID_42_);}
</style>
<linearGradient id="SVGID_1_" gradientUnits="userSpaceOnUse" x1="224.848" y1="196.0338" x2="285.5057" y2="-22.334">
	<stop  offset="0" style="stop-color:#F8F6FF"/>
	<stop  offset="1" style="stop-color:#E0D8FF"/>
</linearGradient>
<path class="st0" d="M424.9,68.2v204H39c-50-44-42-105-1-126c42.5-21.7,51.8-18.1,59-70C118-75.8,324,42.2,424.9,68.2z"/>
<g>
	<path class="st1" d="M125.2,242.7c0,0,22-28,13.2-60.9l-9.2,8.3l8-12.5c-1.4-4.1-3.3-8.2-5.8-12.3L126,171l3.8-8.3
		c-5.4-8.2-13.1-16.4-23.9-24.3c0,0-7.6,12.8-11.1,29.7l3.5,4.7l-4.3-0.6c-1.6,10.6-1.4,22.4,3.3,33.6
		C109.6,234.8,125.2,242.7,125.2,242.7z"/>
	<path class="st2" d="M125.5,243c-0.1,0.1-0.1,0.1-0.2,0.1c-0.2,0.1-0.5-0.1-0.5-0.3c-11.7-47-19.3-103.7-19.4-104.3
		c0-0.2,0.1-0.5,0.4-0.5c0.2,0,0.5,0.1,0.5,0.4c0.1,0.6,7.7,57.2,19.4,104.2C125.7,242.7,125.6,242.9,125.5,243z"/>
	<path class="st2" d="M108.6,157.8l-8.3-8.2c-0.2-0.2-0.2-0.4,0-0.6c0.2-0.2,0.4-0.2,0.6,0l7.6,7.5l7.2-9.9c0.1-0.2,0.4-0.2,0.6-0.1
		c0.2,0.1,0.2,0.4,0.1,0.6L108.6,157.8z"/>
	<path class="st2" d="M126.9,158.6L126.9,158.6l-15.6,16.5L96,162.3c-0.2-0.2-0.2-0.4-0.1-0.6c0.1-0.2,0.4-0.2,0.6-0.1l14.8,12.3
		l15-15.9c0.2-0.2,0.4-0.2,0.6,0C127.1,158.1,127.1,158.4,126.9,158.6z"/>
	<path class="st2" d="M115,194.2l-21.9-15.9c-0.2-0.1-0.2-0.4-0.1-0.6c0.1-0.2,0.4-0.2,0.6-0.1l21.3,15.4l19.1-22.6
		c0.2-0.2,0.4-0.2,0.6-0.1c0.2,0.2,0.2,0.4,0.1,0.6L115,194.2z"/>
	<path class="st2" d="M140,188.1L140,188.1l-21.9,23l-23.3-11.4c-0.2-0.1-0.3-0.4-0.2-0.6c0.1-0.2,0.4-0.3,0.6-0.2L118,210
		l21.4-22.5c0.2-0.2,0.4-0.2,0.6,0C140.2,187.6,140.2,187.9,140,188.1z"/>
	<path class="st2" d="M121.7,228.4L103,218.2c-0.2-0.1-0.3-0.4-0.2-0.6c0.1-0.2,0.4-0.3,0.6-0.2l18.2,9.9l17.9-20.1
		c0.2-0.2,0.4-0.2,0.6,0c0.2,0.2,0.2,0.4,0,0.6L121.7,228.4z"/>
</g>
<g>
	<path class="st3" d="M122.3,267.4c0,0-35.6,8.7-62.6-13.5l11.7-5.1l-15,2.2c-3.2-3-6.3-6.6-9.1-10.6l7.6-2.6l-9.3,0
		c-5.4-8.5-9.8-19.2-12.6-32.7c0,0,15.2-1.7,32.5,2.2l2.9,5.3l1.3-4.2c10.6,3,21.6,8.2,30,17.3C121.6,249.5,122.3,267.4,122.3,267.4
		z"/>
	<path class="st2" d="M122.5,267.9c0.1,0,0.1-0.1,0.2-0.1c0.2-0.2,0.1-0.5-0.1-0.6c-39-30.9-88.9-62.1-89.4-62.4
		c-0.2-0.1-0.5-0.1-0.6,0.1c-0.1,0.2-0.1,0.5,0.1,0.6c0.5,0.3,50.3,31.5,89.3,62.4C122.2,267.9,122.4,267.9,122.5,267.9z"/>
	<path class="st2" d="M49.9,215.9l-4.1-11.3c-0.1-0.2-0.3-0.3-0.6-0.3c-0.2,0.1-0.3,0.3-0.3,0.6l3.8,10.3l-12.3,2.6
		c-0.2,0.1-0.4,0.3-0.3,0.5c0.1,0.2,0.3,0.4,0.5,0.3L49.9,215.9z"/>
	<path class="st2" d="M42.9,233.3L42.9,233.3l22.1-7.6l-5.5-19.8c-0.1-0.2-0.3-0.4-0.5-0.3c-0.2,0.1-0.4,0.3-0.3,0.5l5.3,19
		l-21.3,7.3c-0.2,0.1-0.4,0.3-0.3,0.6C42.4,233.3,42.7,233.4,42.9,233.3z"/>
	<path class="st2" d="M81.3,237.3L75.7,210c0-0.2-0.3-0.4-0.5-0.3c-0.2,0-0.4,0.3-0.3,0.5l5.4,26.5L51,244.9
		c-0.2,0.1-0.4,0.3-0.3,0.5c0.1,0.2,0.3,0.4,0.5,0.3L81.3,237.3z"/>
	<path class="st2" d="M65,258.1C65,258.1,65,258.1,65,258.1l30.8-10.7L95,220.8c0-0.2-0.2-0.4-0.5-0.4c-0.2,0-0.4,0.2-0.4,0.5
		l0.8,26l-30.2,10.5c-0.2,0.1-0.4,0.3-0.3,0.6C64.5,258.1,64.7,258.2,65,258.1z"/>
	<path class="st2" d="M110.5,258.2l-1.6-21.9c0-0.2-0.2-0.4-0.5-0.4c-0.2,0-0.4,0.2-0.4,0.5l1.6,21.2l-26.4,8.2
		c-0.2,0.1-0.4,0.3-0.3,0.6c0.1,0.2,0.3,0.4,0.6,0.3L110.5,258.2z"/>
</g>
<g>
	<path class="st4" d="M236.5,46.7c-1-0.1-2-0.2-3-0.3c-0.5-1-2.6-5-3.7-7.2c-1.8-0.9-6.7-0.1-8.1,1.4c-0.1,1.1-0.9,6.7-1.1,8.1
		c-0.9,0.4-1.8,0.8-2.7,1.2c-1-0.6-4.7-3-6.8-4.4c-2,0.1-5.8,3.2-6.3,5.2c0.4,1,2.6,6.3,3.1,7.5c-0.6,0.8-1.2,1.6-1.7,2.4
		c-1.2-0.1-5.6-0.3-8.1-0.4c-1.7,1.1-3.4,5.7-2.9,7.7c0.9,0.7,5.4,4.1,6.4,5c-0.1,1-0.2,2-0.3,3c-1,0.5-5,2.6-7.2,3.7
		c-0.9,1.8-0.1,6.7,1.4,8.1c1.1,0.1,6.7,0.9,8.1,1.1c0.4,0.9,0.8,1.8,1.2,2.7c-0.6,1-3,4.7-4.4,6.8c0.1,2,3.2,5.8,5.2,6.3
		c1-0.4,6.3-2.6,7.5-3.1c0.8,0.6,1.6,1.2,2.4,1.7c-0.1,1.2-0.3,5.6-0.4,8.1c1.1,1.7,5.7,3.4,7.7,2.9c0.7-0.9,4.1-5.4,5-6.4
		c1,0.1,2,0.2,3,0.3c0.5,1,2.6,5,3.7,7.2c1.8,0.9,6.7,0.1,8.1-1.4c0.1-1.1,0.9-6.7,1.1-8.1c0.9-0.4,1.8-0.8,2.7-1.2
		c1,0.6,4.7,3,6.8,4.4c2-0.1,5.8-3.2,6.3-5.2c-0.4-1-2.6-6.3-3.1-7.5c0.6-0.8,1.2-1.6,1.7-2.4c1.2,0.1,5.6,0.3,8.1,0.4
		c1.7-1.1,3.4-5.7,2.9-7.7c-0.9-0.7-5.4-4.1-6.4-5c0.1-1,0.2-2,0.3-3c1-0.5,5-2.6,7.2-3.7c0.9-1.8,0.1-6.7-1.4-8.1
		c-1.1-0.1-6.7-0.9-8.1-1.1c-0.4-0.9-0.8-1.8-1.2-2.7c0.6-1,3-4.7,4.4-6.8c-0.1-2-3.2-5.8-5.2-6.3c-1,0.4-6.3,2.6-7.5,3.1
		c-0.8-0.6-1.6-1.2-2.4-1.7c0.1-1.2,0.3-5.6,0.4-8.1c-1.1-1.7-5.7-3.4-7.7-2.9C240.8,41.1,237.3,45.6,236.5,46.7z M209.9,61.4
		c2.1-2.9,4.6-5.3,7.6-7.2c3.1-2,6.5-3.3,10.1-3.9c3.6-0.6,7.3-0.5,10.8,0.3c3.4,0.8,6.6,2.3,9.5,4.3c2.9,2.1,5.3,4.6,7.2,7.6
		c2,3.1,3.3,6.5,3.9,10.1c0.6,3.6,0.5,7.3-0.3,10.8c-0.8,3.4-2.3,6.6-4.3,9.5c-2.1,2.9-4.6,5.3-7.6,7.2c-3.1,2-6.5,3.3-10.1,3.9
		c-3.6,0.6-7.3,0.5-10.8-0.3c-3.4-0.8-6.6-2.3-9.5-4.3c-2.9-2.1-5.3-4.6-7.2-7.6c-2-3.1-3.3-6.5-3.9-10.1c-0.6-3.6-0.5-7.3,0.3-10.8
		C206.4,67.5,207.8,64.3,209.9,61.4z"/>
	<path class="st4" d="M207.4,81.4c2.3,13.6,15.3,22.8,28.9,20.5c13.6-2.3,22.8-15.3,20.5-28.9c-2.3-13.6-15.3-22.8-28.9-20.5
		C214.3,54.9,205.1,67.8,207.4,81.4z M228.6,56.4c5.6-0.9,11.2,0.3,15.8,3.6c4.6,3.3,7.7,8.1,8.6,13.7c0.9,5.6-0.3,11.2-3.6,15.8
		c-3.3,4.6-8.1,7.7-13.7,8.6c-5.6,0.9-11.2-0.3-15.8-3.6c-4.6-3.3-7.7-8.1-8.6-13.7c-0.9-5.6,0.3-11.2,3.6-15.8
		C218.2,60.4,223,57.4,228.6,56.4z"/>
</g>
<g>
	<path class="st3" d="M364.1,198.7c-2.6,0.1-5.3,0.5-7.9,1.2c-2-1.8-5-4.4-6.9-6.1c-2.9-0.3-9,3.3-10.1,6.1c0.3,1.1,1.4,5.9,2.2,9
		c-1.9,2-3.4,4.1-4.7,6.4c-2.7,0.2-6.6,0.4-9.2,0.5c-2.3,1.9-4,8.7-2.9,11.4c1,0.6,5.2,3.2,7.9,4.8c0.1,2.6,0.5,5.3,1.2,7.9
		c-1.8,2-4.4,5-6.1,6.9c-0.3,2.9,3.3,9,6.1,10.1c1.1-0.3,5.9-1.4,9-2.2c2,1.9,4.1,3.4,6.4,4.7c0.2,2.7,0.4,6.6,0.5,9.2
		c1.9,2.3,8.7,4,11.4,2.9c0.6-1,3.2-5.2,4.8-7.9c2.6-0.1,5.3-0.5,7.9-1.2c2,1.8,5,4.4,6.9,6.1c2.9,0.3,9-3.3,10.1-6.1
		c-0.3-1.1-1.4-5.9-2.2-9c1.9-2,3.4-4.1,4.7-6.4c2.7-0.2,6.6-0.4,9.2-0.5c2.3-1.9,4-8.7,2.9-11.4c-1-0.6-5.2-3.2-7.9-4.8
		c-0.1-2.6-0.5-5.3-1.2-7.9c1.8-2,4.4-5,6.1-6.9c0.3-2.9-3.3-9-6.1-10.1c-1.1,0.3-5.9,1.4-9,2.2c-2-1.9-4.1-3.4-6.4-4.7
		c-0.2-2.7-0.4-6.6-0.5-9.2c-1.9-2.3-8.7-4-11.4-2.9C368.3,191.8,365.7,196,364.1,198.7z M371.6,204.6c7.1,1.8,13.1,6.2,16.8,12.5
		c3.8,6.3,4.9,13.6,3.1,20.7c-1.8,7.1-6.2,13.1-12.5,16.8c-6.3,3.8-13.6,4.9-20.7,3.1c-7.1-1.8-13.1-6.2-16.8-12.5
		c-3.8-6.3-4.9-13.6-3.1-20.7c1.8-7.1,6.2-13.1,12.5-16.8C357.1,203.9,364.5,202.8,371.6,204.6z"/>
	<linearGradient id="SVGID_2_" gradientUnits="userSpaceOnUse" x1="416.5501" y1="184.3893" x2="395.148" y2="203.7723">
		<stop  offset="0" style="stop-color:#F4F4F9"/>
		<stop  offset="1" style="stop-color:#CBC2F4"/>
	</linearGradient>
	<path class="st5" d="M384.7,219.3c-6.6-10.9-20.7-14.5-31.7-7.9c-10.9,6.6-14.5,20.7-7.9,31.7c6.6,10.9,20.7,14.5,31.7,7.9
		C387.7,244.4,391.3,230.2,384.7,219.3z M382.7,220.5c2.9,4.8,3.7,10.3,2.3,15.7c-1.3,5.4-4.7,9.9-9.5,12.8
		c-4.8,2.9-10.3,3.7-15.7,2.3c-5.4-1.3-9.9-4.7-12.8-9.5c-2.9-4.8-3.7-10.3-2.3-15.7c1.3-5.4,4.7-9.9,9.5-12.8
		c4.8-2.9,10.3-3.7,15.7-2.3C375.3,212.4,379.9,215.7,382.7,220.5z"/>
</g>
<g>
	<linearGradient id="SVGID_3_" gradientUnits="userSpaceOnUse" x1="179.4653" y1="73.9759" x2="148.8351" y2="102.1287">
		<stop  offset="0" style="stop-color:#F4F4F9"/>
		<stop  offset="1" style="stop-color:#CBC2F4"/>
	</linearGradient>
	<polygon class="st6" points="153.4,110.8 171.8,92.4 159.2,79.7 140.8,98.2 	"/>
	<path class="st7" d="M176.4,73.4l-42,42c-1.1,1.1-2.9,1.1-4.1,0l-11-11c-10.5-10.5-10.5-27.5,0-38.1l8-8
		c10.5-10.5,27.5-10.5,38.1,0l11,11C177.5,70.4,177.5,72.2,176.4,73.4z"/>
	<linearGradient id="SVGID_4_" gradientUnits="userSpaceOnUse" x1="302.8053" y1="31.0368" x2="304.8389" y2="55.4405">
		<stop  offset="0" style="stop-color:#F4F4F9"/>
		<stop  offset="1" style="stop-color:#CBC2F4"/>
	</linearGradient>
	<polygon class="st8" points="311,110.8 292.6,92.4 305.3,79.7 323.7,98.2 	"/>
	<path class="st7" d="M288,73.4l42,42c1.1,1.1,2.9,1.1,4.1,0l11-11c10.5-10.5,10.5-27.5,0-38.1l-8-8c-10.5-10.5-27.5-10.5-38.1,0
		l-11,11C286.9,70.4,286.9,72.2,288,73.4z"/>
	<linearGradient id="SVGID_5_" gradientUnits="userSpaceOnUse" x1="77.5599" y1="59.7806" x2="379.8272" y2="277.0522">
		<stop  offset="0" style="stop-color:#8F89E0"/>
		<stop  offset="1" style="stop-color:#5B24B7"/>
	</linearGradient>
	<circle class="st9" cx="231.9" cy="170.7" r="101.1"/>
	<linearGradient id="SVGID_6_" gradientUnits="userSpaceOnUse" x1="196.8563" y1="91.3436" x2="261.6158" y2="238.1265">
		<stop  offset="0" style="stop-color:#F8F6FF"/>
		<stop  offset="1" style="stop-color:#DCD8FF"/>
	</linearGradient>
	<circle class="st10" cx="231.9" cy="170.7" r="83.8"/>
	<polygon class="st4" points="191.7,130.6 225.9,177.5 238.6,164.7 	"/>
	
		<ellipse transform="matrix(0.7071 -0.7071 0.7071 0.7071 -52.789 213.9503)" class="st4" cx="231.9" cy="170.7" rx="9.2" ry="9.2"/>
	<path class="st11" d="M236.3,170.7c0,2.4-2,4.4-4.4,4.4c-2.4,0-4.4-2-4.4-4.4c0-2.4,2-4.4,4.4-4.4
		C234.3,166.3,236.3,168.3,236.3,170.7z"/>
	<path class="st7" d="M231.9,119.6c-1.1,0-2-0.9-2-2V97.2c0-1.1,0.9-2,2-2c1.1,0,2,0.9,2,2v20.4C233.9,118.7,233,119.6,231.9,119.6z
		"/>
	<path class="st7" d="M305.9,172.7h-20.4c-1.1,0-2-0.9-2-2c0-1.1,0.9-2,2-2h20.4c1.1,0,2,0.9,2,2C308,171.8,307.1,172.7,305.9,172.7
		z"/>
	<path class="st7" d="M178.2,172.7h-20.4c-1.1,0-2-0.9-2-2c0-1.1,0.9-2,2-2h20.4c1.1,0,2,0.9,2,2
		C180.3,171.8,179.4,172.7,178.2,172.7z"/>
	<path class="st7" d="M231.9,246.3c-1.1,0-2-0.9-2-2v-20.4c0-1.1,0.9-2,2-2c1.1,0,2,0.9,2,2v20.4C233.9,245.4,233,246.3,231.9,246.3
		z"/>
	<path class="st1" d="M142.4,59.2l22,18.2l7.8-6.8C172.1,70.7,154.9,53.2,142.4,59.2z"/>
	<path class="st1" d="M322.8,59.2l-22,18.2l-7.8-6.8C293,70.7,310.3,53.2,322.8,59.2z"/>
</g>
<g>
	<linearGradient id="SVGID_7_" gradientUnits="userSpaceOnUse" x1="298.5666" y1="170.3313" x2="370.525" y2="393.9765">
		<stop  offset="0" style="stop-color:#8F89E0"/>
		<stop  offset="1" style="stop-color:#5B24B7"/>
	</linearGradient>
	<path class="st12" d="M324.9,215.6c0-15.3,30.4-31.3,30.3-54.6c-14.7,0.1-63.6,0.1-84.2,0c-0.1,23.3,30.3,39.5,30.3,54.7
		c0,15.3-30.4,31.3-30.3,54.6c14.7-0.1,63.6-0.1,84.2,0C355.4,247,325,230.8,324.9,215.6z"/>
	<linearGradient id="SVGID_8_" gradientUnits="userSpaceOnUse" x1="311.475" y1="220.5248" x2="298.1056" y2="264.4529">
		<stop  offset="0" style="stop-color:#F6F9F9"/>
		<stop  offset="1" style="stop-color:#F7F7FF"/>
	</linearGradient>
	<path class="st13" d="M321.9,215.6c0-14.5,27.5-29.6,27.5-51.7c-11,0.1-57.4,0.1-72.8,0c-0.1,22.1,27.8,37.3,27.8,51.8
		c0,14.5-27.8,29.6-27.8,51.7c11-0.1,57.4-0.1,72.8,0C349.5,245.3,322,230,321.9,215.6z"/>
	<linearGradient id="SVGID_9_" gradientUnits="userSpaceOnUse" x1="306.079" y1="152.1353" x2="322.4173" y2="203.0564">
		<stop  offset="2.600000e-07" style="stop-color:#FFF3A4"/>
		<stop  offset="1" style="stop-color:#FFCE5C"/>
	</linearGradient>
	<path class="st14" d="M285.4,173.2c0,7.1,7.7,18.4,17.8,26.9c7.9,6.7,9.3,22.1,9.7,29.3c0,1.1,0.4,25.3,0.4,25.3s0.4-24.2,0.4-25.3
		c0.4-7.3,1.8-22.6,9.7-29.3c10.1-8.6,17.5-19.9,17.4-26.9C332.1,173.2,294.2,173.2,285.4,173.2z"/>
	<linearGradient id="SVGID_10_" gradientUnits="userSpaceOnUse" x1="306.0037" y1="242.5708" x2="314.5813" y2="270.7545">
		<stop  offset="2.600000e-07" style="stop-color:#FFF3A4"/>
		<stop  offset="1" style="stop-color:#FFCE5C"/>
	</linearGradient>
	<path class="st15" d="M284,265.6c8.7,0,45.7,0,58,0c0.1-4.6-28.7-10.8-28.7-10.8S283.9,261,284,265.6z"/>
	<linearGradient id="SVGID_11_" gradientUnits="userSpaceOnUse" x1="257.4647" y1="271.4477" x2="372.5664" y2="268.9545">
		<stop  offset="0" style="stop-color:#6060A4"/>
		<stop  offset="0.9966" style="stop-color:#200455"/>
	</linearGradient>
	<path class="st16" d="M356.2,273.1h-86.1c-1.3,0-2.4-1.1-2.4-2.4v-1c0-1.3,1.1-2.4,2.4-2.4h86.1c1.3,0,2.4,1.1,2.4,2.4v1
		C358.6,272,357.5,273.1,356.2,273.1z"/>
	<linearGradient id="SVGID_12_" gradientUnits="userSpaceOnUse" x1="277.1912" y1="161.7246" x2="392.2929" y2="159.2314">
		<stop  offset="0" style="stop-color:#6060A4"/>
		<stop  offset="0.9966" style="stop-color:#200455"/>
	</linearGradient>
	<path class="st17" d="M356.2,163.8h-86.1c-1.3,0-2.4-1.1-2.4-2.4v-1c0-1.3,1.1-2.4,2.4-2.4h86.1c1.3,0,2.4,1.1,2.4,2.4v1
		C358.6,162.8,357.5,163.8,356.2,163.8z"/>
</g>
<g>
	<linearGradient id="SVGID_13_" gradientUnits="userSpaceOnUse" x1="177.8115" y1="244.5815" x2="315.1024" y2="364.0963">
		<stop  offset="0" style="stop-color:#8F89E0"/>
		<stop  offset="1" style="stop-color:#5B24B7"/>
	</linearGradient>
	<rect x="115.3" y="201.9" class="st18" width="108.3" height="70.7"/>
	<rect x="123.1" y="220.9" class="st19" width="92.6" height="46.9"/>
	<g>
		<path class="st20" d="M127,234.9v-8.3c0-0.4,0.4-0.8,0.8-0.8h10.6c0.4,0,0.8,0.4,0.8,0.8v8.3c0,0.4-0.4,0.8-0.8,0.8h-10.6
			C127.4,235.7,127,235.3,127,234.9z"/>
		<path class="st20" d="M144.7,234.9v-8.3c0-0.4,0.4-0.8,0.8-0.8h10.6c0.4,0,0.8,0.4,0.8,0.8v8.3c0,0.4-0.4,0.8-0.8,0.8h-10.6
			C145.1,235.7,144.7,235.3,144.7,234.9z"/>
		<path class="st20" d="M162.4,234.9v-8.3c0-0.4,0.4-0.8,0.8-0.8h10.6c0.4,0,0.8,0.4,0.8,0.8v8.3c0,0.4-0.4,0.8-0.8,0.8h-10.6
			C162.8,235.7,162.4,235.3,162.4,234.9z"/>
		<path class="st20" d="M180.1,234.9v-8.3c0-0.4,0.4-0.8,0.8-0.8h10.6c0.4,0,0.8,0.4,0.8,0.8v8.3c0,0.4-0.4,0.8-0.8,0.8h-10.6
			C180.5,235.7,180.1,235.3,180.1,234.9z"/>
		<path class="st20" d="M197.9,234.9v-8.3c0-0.4,0.4-0.8,0.8-0.8h10.6c0.4,0,0.8,0.4,0.8,0.8v8.3c0,0.4-0.4,0.8-0.8,0.8h-10.6
			C198.2,235.7,197.9,235.3,197.9,234.9z"/>
		<path class="st20" d="M127,248.5v-8.3c0-0.4,0.4-0.8,0.8-0.8h10.6c0.4,0,0.8,0.4,0.8,0.8v8.3c0,0.4-0.4,0.8-0.8,0.8h-10.6
			C127.4,249.3,127,248.9,127,248.5z"/>
		<path class="st20" d="M144.7,248.5v-8.3c0-0.4,0.4-0.8,0.8-0.8h10.6c0.4,0,0.8,0.4,0.8,0.8v8.3c0,0.4-0.4,0.8-0.8,0.8h-10.6
			C145.1,249.3,144.7,248.9,144.7,248.5z"/>
		<path class="st20" d="M162.4,248.5v-8.3c0-0.4,0.4-0.8,0.8-0.8h10.6c0.4,0,0.8,0.4,0.8,0.8v8.3c0,0.4-0.4,0.8-0.8,0.8h-10.6
			C162.8,249.3,162.4,248.9,162.4,248.5z"/>
		<path class="st20" d="M180.1,248.5v-8.3c0-0.4,0.4-0.8,0.8-0.8h10.6c0.4,0,0.8,0.4,0.8,0.8v8.3c0,0.4-0.4,0.8-0.8,0.8h-10.6
			C180.5,249.3,180.1,248.9,180.1,248.5z"/>
		<path class="st20" d="M197.9,248.5v-8.3c0-0.4,0.4-0.8,0.8-0.8h10.6c0.4,0,0.8,0.4,0.8,0.8v8.3c0,0.4-0.4,0.8-0.8,0.8h-10.6
			C198.2,249.3,197.9,248.9,197.9,248.5z"/>
		<path class="st20" d="M127,262.1v-8.3c0-0.4,0.4-0.8,0.8-0.8h10.6c0.4,0,0.8,0.4,0.8,0.8v8.3c0,0.4-0.4,0.8-0.8,0.8h-10.6
			C127.4,262.9,127,262.5,127,262.1z"/>
		<path class="st20" d="M144.7,262.1v-8.3c0-0.4,0.4-0.8,0.8-0.8h10.6c0.4,0,0.8,0.4,0.8,0.8v8.3c0,0.4-0.4,0.8-0.8,0.8h-10.6
			C145.1,262.9,144.7,262.5,144.7,262.1z"/>
		<path class="st20" d="M162.4,262.1v-8.3c0-0.4,0.4-0.8,0.8-0.8h10.6c0.4,0,0.8,0.4,0.8,0.8v8.3c0,0.4-0.4,0.8-0.8,0.8h-10.6
			C162.8,262.9,162.4,262.5,162.4,262.1z"/>
		<path class="st20" d="M180.1,262.1v-8.3c0-0.4,0.4-0.8,0.8-0.8h10.6c0.4,0,0.8,0.4,0.8,0.8v8.3c0,0.4-0.4,0.8-0.8,0.8h-10.6
			C180.5,262.9,180.1,262.5,180.1,262.1z"/>
		<path class="st20" d="M197.9,262.1v-8.3c0-0.4,0.4-0.8,0.8-0.8h10.6c0.4,0,0.8,0.4,0.8,0.8v8.3c0,0.4-0.4,0.8-0.8,0.8h-10.6
			C198.2,262.9,197.9,262.5,197.9,262.1z"/>
	</g>
	<g>
		<path class="st4" d="M125.4,208.1h-0.8c-1,0-1.9-0.8-1.9-1.9v-7.8c0-1,0.8-1.9,1.9-1.9h0.8c1,0,1.9,0.8,1.9,1.9v7.8
			C127.2,207.3,126.4,208.1,125.4,208.1z"/>
		<path class="st4" d="M143.1,208.1h-0.8c-1,0-1.9-0.8-1.9-1.9v-7.8c0-1,0.8-1.9,1.9-1.9h0.8c1,0,1.9,0.8,1.9,1.9v7.8
			C144.9,207.3,144.1,208.1,143.1,208.1z"/>
		<path class="st4" d="M160.8,208.1H160c-1,0-1.9-0.8-1.9-1.9v-7.8c0-1,0.8-1.9,1.9-1.9h0.8c1,0,1.9,0.8,1.9,1.9v7.8
			C162.6,207.3,161.8,208.1,160.8,208.1z"/>
		<path class="st4" d="M178.5,208.1h-0.8c-1,0-1.9-0.8-1.9-1.9v-7.8c0-1,0.8-1.9,1.9-1.9h0.8c1,0,1.9,0.8,1.9,1.9v7.8
			C180.3,207.3,179.5,208.1,178.5,208.1z"/>
		<path class="st4" d="M196.2,208.1h-0.8c-1,0-1.9-0.8-1.9-1.9v-7.8c0-1,0.8-1.9,1.9-1.9h0.8c1,0,1.9,0.8,1.9,1.9v7.8
			C198.1,207.3,197.2,208.1,196.2,208.1z"/>
		<path class="st4" d="M213.9,208.1h-0.8c-1,0-1.9-0.8-1.9-1.9v-7.8c0-1,0.8-1.9,1.9-1.9h0.8c1,0,1.9,0.8,1.9,1.9v7.8
			C215.8,207.3,214.9,208.1,213.9,208.1z"/>
	</g>
</g>
<g>
	
		<linearGradient id="SVGID_14_" gradientUnits="userSpaceOnUse" x1="-650.0078" y1="340.1227" x2="-645.0997" y2="342.5222" gradientTransform="matrix(0.9994 3.380000e-02 -3.380000e-02 0.9994 1018.309 -130.991)">
		<stop  offset="2.600000e-07" style="stop-color:#FFF3A4"/>
		<stop  offset="1" style="stop-color:#FFCE5C"/>
	</linearGradient>
	<path class="st21" d="M358.5,188c-0.3,0.5-1,2-1,4.4c0,0.6,0.5,1.1,1.1,1.2c2.7,0.3,10.6,1.1,20,0.8c0.4,0,0.7-0.4,0.6-0.8
		c-0.2-0.7-0.9-1.8-3.1-2.3l-17.2-3.5C358.8,187.8,358.6,187.9,358.5,188z"/>
	
		<linearGradient id="SVGID_15_" gradientUnits="userSpaceOnUse" x1="-639.9638" y1="339.7946" x2="-639.3091" y2="313.6078" gradientTransform="matrix(0.9994 3.380000e-02 -3.380000e-02 0.9994 1018.309 -130.991)">
		<stop  offset="0" style="stop-color:#FFB39C"/>
		<stop  offset="1" style="stop-color:#FF825C"/>
	</linearGradient>
	<path class="st22" d="M367.6,168.8c0,0-1.8,14.5-0.3,17.5c1.5,3,9,5,9,5s-11.2,1.9-17.6-3.5c0,0,1.2-2.4,1.4-3.8
		c0.2-1.4-1.2-10.3-1-16.6C359.1,167.4,364,166.3,367.6,168.8z"/>
	<path class="st23" d="M372.9,193.9c-8.9,0-15.1-1.5-15.2-1.5c-0.1,0-0.2-0.2-0.2-0.3c0-0.1,0.2-0.2,0.3-0.2c0.1,0,9.1,2.2,21,1.3
		c0.1,0,0.3,0.1,0.3,0.2c0,0.1-0.1,0.3-0.2,0.3C376.8,193.8,374.8,193.9,372.9,193.9z"/>
	
		<linearGradient id="SVGID_16_" gradientUnits="userSpaceOnUse" x1="-725.287" y1="188.0246" x2="-728.8371" y2="143.548" gradientTransform="matrix(1 0 0 1 1082 0)">
		<stop  offset="0" style="stop-color:#9281E0"/>
		<stop  offset="1" style="stop-color:#5B24B7"/>
	</linearGradient>
	<path class="st24" d="M334.8,138.4c0,0,26.5,0.3,36.5,4.9c0.7,4.6-2.8,26.4-2.8,26.4s-8.6,0-10.5-0.9c0,0-0.7-10.5-0.2-16.4
		C357.8,152.4,332.4,145.5,334.8,138.4z"/>
	<path class="st25" d="M322.5,107.3C322.5,107.3,322.5,107.3,322.5,107.3c-3.5-0.8-7.6-5.1-8-9.8c-0.3-3,0.9-7.2,7.9-10
		c6-2.5,7.4-6.6,8.7-10.7c1.3-4,2.6-7.7,8.3-8.8c5-0.9,8.8-0.3,11,1.8c2.4,2.3,2.4,5.5,2.4,6.2c2.1,1.8,0.5,8.8,0.4,9.1
		c0,0.1-0.2,0.2-0.3,0.2c-0.1,0-0.2-0.2-0.2-0.3c0.5-2,1.3-7.5-0.3-8.7l-0.1-0.1l0-0.1c0,0,0.3-3.6-2.2-5.9c-2.2-2-5.7-2.5-10.6-1.6
		c-5.5,1-6.6,4.5-7.9,8.4c-1.3,3.9-2.8,8.4-9,11c-6.7,2.8-7.8,6.7-7.6,9.5c0.4,4.4,4.4,8.7,7.6,9.4c0.1,0,0.2,0.2,0.2,0.3
		C322.7,107.2,322.6,107.3,322.5,107.3z"/>
	
		<linearGradient id="SVGID_17_" gradientUnits="userSpaceOnUse" x1="-682.9114" y1="187.3791" x2="-685.4199" y2="192.8867" gradientTransform="matrix(1 0 0 1 1082 0)">
		<stop  offset="2.600000e-07" style="stop-color:#FFF3A4"/>
		<stop  offset="1" style="stop-color:#FFCE5C"/>
	</linearGradient>
	<path class="st26" d="M386.8,188.8c0,0-0.6,2.8,0,5.1c0.1,0.3,0.4,0.6,0.7,0.7c1.5,0.3,7.1,1.1,19.1,0.6c0.7,0,1.1-0.7,0.8-1.3
		c-0.4-0.8-1.6-1.7-2.7-1.7L386.8,188.8z"/>
	
		<linearGradient id="SVGID_18_" gradientUnits="userSpaceOnUse" x1="-688.2504" y1="188.0032" x2="-706.5721" y2="164.7739" gradientTransform="matrix(1 0 0 1 1082 0)">
		<stop  offset="0" style="stop-color:#FFB39C"/>
		<stop  offset="1" style="stop-color:#FF825C"/>
	</linearGradient>
	<path class="st27" d="M375.8,172.4c0,0,6.5,7,11.3,13.3c0,0,0,1.4-0.3,3.1c0,0,6.1,4.1,17.9,3.4c0,0-5.5-1-8.1-3.5
		c-2.6-2.6-12.9-20.3-12.9-20.3S378.7,168.2,375.8,172.4z"/>
	
		<linearGradient id="SVGID_19_" gradientUnits="userSpaceOnUse" x1="-693.9747" y1="150.4867" x2="-756.696" y2="156.5524" gradientTransform="matrix(1 0 0 1 1082 0)">
		<stop  offset="0" style="stop-color:#9281E0"/>
		<stop  offset="1" style="stop-color:#5B24B7"/>
	</linearGradient>
	<path class="st28" d="M335.7,135.6c0,0-0.2,2.8,0,3.8c0,0,26,0.9,38.6,8.1l10.3,20.8c0,0-3.9,3.9-9.8,5.7c0,0-7.6-14.3-9.3-17.1
		c0,0-9.9-0.3-31.2,0.2s-22.1-7.4-18.1-19.5C316.2,137.6,327.2,131.1,335.7,135.6z"/>
	<path class="st29" d="M379.1,172.2c-0.1,0-0.2,0-0.2-0.1c-2-2.7-4.5-7.6-6.6-11.9c-1.8-3.6-3.5-7-4.4-8c-3.4-1.4-11.5-1-20-0.7
		c-10.2,0.4-20.8,0.9-24.9-1.5c-1.8-1.1-2.9-2.5-3.4-4.4c-1.1-4.8,2.5-10.5,2.7-10.7c0.1-0.1,0.2-0.2,0.4-0.1
		c0.1,0.1,0.2,0.2,0.1,0.4c0,0.1-3.7,5.7-2.6,10.3c0.4,1.7,1.5,3.1,3.1,4.1c3.9,2.3,14.5,1.9,24.6,1.5c8.6-0.4,16.8-0.7,20.3,0.7
		l0,0l0,0c1,1,2.6,4.3,4.5,8.1c2.1,4.3,4.5,9.2,6.5,11.9c0.1,0.1,0.1,0.3-0.1,0.4C379.2,172.2,379.1,172.2,379.1,172.2z"/>
	<path class="st25" d="M352.8,76.5c0,0,0.9-7.6-10-8C332.3,68.1,332.6,80,326,85.8c-6.6,5.8-17.8,9.7-4.1,20.8L352.8,76.5z"/>
	
		<linearGradient id="SVGID_20_" gradientUnits="userSpaceOnUse" x1="-730.6765" y1="122.6032" x2="-750.1436" y2="116.9794" gradientTransform="matrix(1 0 0 1 1082 0)">
		<stop  offset="9.999999e-08" style="stop-color:#FF476A"/>
		<stop  offset="1" style="stop-color:#DE1A40"/>
	</linearGradient>
	<path class="st30" d="M331.3,91.8c0,0-4,1.2-6.2,5.4c-2.3,4.2-5.4,30-10.4,35.2c-5,5.2,1.2,5.5,4.5,5.2c3.3-0.3,12.1-2.1,16.5-1.9
		c0,0,4.1-10.1,6.4-14.7c3.3-6.4,4.1-8.4,2.4-12.7c-2.2-5.8-2.8-7.1-2.8-7.1S336.2,91.4,331.3,91.8z"/>
	
		<linearGradient id="SVGID_21_" gradientUnits="userSpaceOnUse" x1="-745.3384" y1="96.2201" x2="-741.341" y2="88.2415" gradientTransform="matrix(1 0 0 1 1082 0)">
		<stop  offset="0" style="stop-color:#FFB39C"/>
		<stop  offset="1" style="stop-color:#FF825C"/>
	</linearGradient>
	<path class="st31" d="M338.6,82.7c0,0-3.9,8.2-7.2,9.1c0,0,0.1,0.5,2.9,2.3c4.3,2.6,3.9,6.3,7.5,7.1c0,0-1.9-5.5-1.9-6.8
		c0-1.2,2.6-3.6,2.6-3.6S342.1,82.2,338.6,82.7z"/>
	
		<linearGradient id="SVGID_22_" gradientUnits="userSpaceOnUse" x1="-742.8553" y1="126.8505" x2="-745.5819" y2="140.0471" gradientTransform="matrix(1 0 0 1 1082 0)">
		<stop  offset="0" style="stop-color:#FFB39C"/>
		<stop  offset="1" style="stop-color:#FF825C"/>
	</linearGradient>
	<path class="st32" d="M331.3,123.5c0,0,15.3,11.3,21.1,12.8c0,0,0.9,1.7-0.3,2.6c0,0-25-5.7-29.1-10.9
		C323,128,323.4,122.3,331.3,123.5z"/>
	
		<linearGradient id="SVGID_23_" gradientUnits="userSpaceOnUse" x1="-735.5117" y1="88.819" x2="-737.4022" y2="76.4949" gradientTransform="matrix(1 0 0 1 1082 0)">
		<stop  offset="0" style="stop-color:#FFB39C"/>
		<stop  offset="1" style="stop-color:#FF825C"/>
	</linearGradient>
	<path class="st33" d="M338.5,83c0,0-0.8,2.1,0.8,4.5c1.6,2.4,5.1,5.1,7.1,4.7c1.9-0.5,5.8-8.1,6.5-15.6c0,0-5.1-2-8.6,1.2
		c-3.7,3.3-3.8,1.4-4.4,0C338.5,74.7,335.1,80.3,338.5,83z"/>
	
		<linearGradient id="SVGID_24_" gradientUnits="userSpaceOnUse" x1="-765.3015" y1="115.894" x2="-742.7219" y2="106.9441" gradientTransform="matrix(1 0 0 1 1082 0)">
		<stop  offset="9.999999e-08" style="stop-color:#FF476A"/>
		<stop  offset="1" style="stop-color:#DE1A40"/>
	</linearGradient>
	<path class="st34" d="M336.9,103.2c0,0-6.2,18.4-5.5,20.3c0,0-5.7,0.3-8.3,4.5c0,0-0.5-0.3-0.5-2.1c0-1.7,0.7-9.2,2.4-16.8
		c1.7-7.6,1.2-11.3,4.9-13C333.4,94.4,338.1,99.7,336.9,103.2z"/>
	
		<linearGradient id="SVGID_25_" gradientUnits="userSpaceOnUse" x1="-722.8716" y1="132.2766" x2="-725.221" y2="143.6474" gradientTransform="matrix(1 0 0 1 1082 0)">
		<stop  offset="0" style="stop-color:#FFB39C"/>
		<stop  offset="1" style="stop-color:#FF825C"/>
	</linearGradient>
	<path class="st35" d="M363.7,140c0,0-3.8-3.4-4.8-3.7s-2.2,0-6.4,0c0,0-1.2,1.6-0.3,2.6L363.7,140z"/>
	<path class="st36" d="M360.5,139.9c0,0-0.1,0-0.1-0.1c-0.9-1-2.7-1.5-2.7-1.5c-0.1,0-0.1-0.1-0.1-0.2c0-0.1,0.1-0.1,0.2-0.1
		c0.1,0,1.9,0.5,2.9,1.6c0.1,0.1,0.1,0.2,0,0.2C360.5,139.9,360.5,139.9,360.5,139.9z"/>
	<path class="st36" d="M362.7,140.1c0,0-0.1,0-0.1,0c0,0-3-2.4-4.1-2.6c-0.1,0-0.1-0.1-0.1-0.2c0-0.1,0.1-0.1,0.2-0.1
		c1.1,0.2,4.1,2.6,4.2,2.7c0.1,0.1,0.1,0.2,0,0.2C362.8,140.1,362.7,140.1,362.7,140.1z"/>
	<path class="st37" d="M335.7,139.5C335.7,139.5,335.7,139.5,335.7,139.5c-3.4-0.3-4.8-0.3-4.9-0.3c-0.1,0-0.3-0.1-0.3-0.3
		s0.1-0.3,0.3-0.3c0.1,0,1.5,0,4.9,0.3c0.1,0,0.2,0.1,0.2,0.3C335.9,139.4,335.8,139.5,335.7,139.5z"/>
	<path class="st23" d="M402.9,194.7c-7.5,0-16-1.1-16.1-1.1c-0.1,0-0.2-0.1-0.2-0.3c0-0.1,0.1-0.2,0.3-0.2c0.1,0,12.5,1.6,20.4,0.9
		c0.1,0,0.3,0.1,0.3,0.2c0,0.1-0.1,0.3-0.2,0.3C406,194.7,404.5,194.7,402.9,194.7z"/>
	<path class="st25" d="M369.2,142.4l-22.8-3.3c-0.4-0.1-0.8-0.5-0.7-0.9c0.1-0.4,0.5-0.8,0.9-0.7l21.9,3.2l14.3-18.7
		c0.3-0.4,0.8-0.4,1.1-0.2c0.4,0.3,0.4,0.8,0.2,1.1L369.2,142.4z"/>
</g>
<g>
	<path class="st3" d="M424,272.9c0,0.5-0.5,0.9-1,0.9L1,273.6c-0.6,0-1-0.4-1-0.9c0-0.5,0.5-0.9,1-0.9l422,0.2
		C423.5,272,424,272.4,424,272.9z"/>
	<path class="st3" d="M181.5,283l-112.8,0c-0.6,0-1-0.4-1-0.9l0,0c0-0.5,0.5-0.9,1-0.9l112.8,0c0.6,0,1,0.4,1,0.9l0,0
		C182.5,282.6,182,283,181.5,283z"/>
	<path class="st3" d="M354.7,283l-85.1,0c-0.6,0-1-0.4-1-0.9l0,0c0-0.5,0.5-0.9,1-0.9l85.1,0c0.6,0,1,0.4,1,0.9l0,0
		C355.7,282.6,355.3,283,354.7,283z"/>
	<path class="st3" d="M305.5,278.4l-187-0.1c-0.7,0-1.2-0.4-1.2-0.9l0,0c0-0.5,0.5-0.9,1.2-0.9l187,0.1c0.7,0,1.2,0.4,1.2,0.9l0,0
		C306.7,278,306.2,278.4,305.5,278.4z"/>
</g>
<g>
	<path class="st25" d="M103.7,205.2c0,0-0.1,0-0.1,0c-0.1-0.1-0.2-0.2-0.1-0.3c2.9-5.5-1.3-8.8-1.5-8.9c-0.1-0.1-0.1-0.2,0-0.4
		c0.1-0.1,0.2-0.1,0.4-0.1c0,0,4.8,3.7,1.6,9.6C103.8,205.1,103.8,205.2,103.7,205.2z"/>
	<path class="st25" d="M87,204.9c-0.1,0-0.2-0.1-0.2-0.2c-1.3-4.2-1.1-7.4,0.7-9.3c3-3.3,9.3-2,9.6-2c0.1,0,0.2,0.2,0.2,0.3
		c0,0.1-0.2,0.2-0.3,0.2c-0.1,0-6.3-1.3-9.1,1.8c-1.7,1.8-1.9,4.8-0.6,8.8C87.3,204.8,87.2,204.9,87,204.9
		C87,204.9,87,204.9,87,204.9z"/>
	<linearGradient id="SVGID_26_" gradientUnits="userSpaceOnUse" x1="76.717" y1="317.8" x2="92.6118" y2="317.8">
		<stop  offset="0" style="stop-color:#6060A4"/>
		<stop  offset="0.9966" style="stop-color:#200455"/>
	</linearGradient>
	<path class="st38" d="M88.6,313.6c0,0,0,1.8-0.1,3.3c0,0.9-0.1,1.8-0.3,2.1c-0.3,0.8-1.7,0.7-2.2,1.5c-0.5,0.8-1.2,1.9-4.7,2
		c-3.5,0.2-5.9-0.2-6.3-1.2c-0.2-0.5-0.2-0.8-0.1-1.3v0c0-0.6,0.4-1.3,1.6-2.4c2.2-2,3.9-3.9,3.9-3.9S84.8,312.1,88.6,313.6z"/>
	<path class="st39" d="M88.5,317c0,0.9-0.1,1.8-0.3,2.1c-0.3,0.8-1.7,0.7-2.2,1.5c-0.5,0.8-1.2,1.9-4.7,2c-3.5,0.2-5.9-0.2-6.3-1.2
		c-0.2-0.5-0.2-0.8-0.1-1.3v0c0,0,5.8,0.9,8.2-0.1C85.5,319,85.4,318.3,88.5,317z"/>
	<path class="st40" d="M83.4,316.1C83.4,316.1,83.4,316.1,83.4,316.1c-2.5-0.7-4.4-0.2-4.4-0.2c-0.1,0-0.3,0-0.3-0.2
		c0-0.1,0-0.3,0.2-0.3c0.1,0,2.1-0.5,4.6,0.2c0.1,0,0.2,0.2,0.2,0.3C83.6,316,83.5,316.1,83.4,316.1z"/>
	<path class="st40" d="M84.2,315.2C84.2,315.2,84.2,315.2,84.2,315.2c-2.5-0.7-4.4-0.2-4.4-0.2c-0.1,0-0.3,0-0.3-0.2
		c0-0.1,0-0.3,0.2-0.3c0.1,0,2.1-0.5,4.6,0.2c0.1,0,0.2,0.2,0.2,0.3C84.5,315.2,84.4,315.2,84.2,315.2z"/>
	<linearGradient id="SVGID_27_" gradientUnits="userSpaceOnUse" x1="105.3511" y1="321.0353" x2="111.9548" y2="312.0919">
		<stop  offset="0" style="stop-color:#6060A4"/>
		<stop  offset="0.9966" style="stop-color:#200455"/>
	</linearGradient>
	<path class="st41" d="M101.2,313.6c0,0,0,1.8,0.1,3.3c0,0.9,0.1,1.8,0.3,2.1c0.3,0.8,1.7,0.7,2.2,1.5c0.5,0.8,1.2,1.9,4.7,2
		c3.5,0.2,5.9-0.2,6.3-1.2c0.2-0.5,0.2-0.8,0.1-1.3v0c0-0.6-0.4-1.3-1.6-2.4c-2.2-2-3.9-3.9-3.9-3.9S104.9,312.1,101.2,313.6z"/>
	<path class="st39" d="M101.3,317c0,0.9,0.1,1.8,0.3,2.1c0.3,0.8,1.7,0.7,2.2,1.5c0.5,0.8,1.2,1.9,4.7,2c3.5,0.2,5.9-0.2,6.3-1.2
		c0.2-0.5,0.2-0.8,0.1-1.3v0c0,0-5.8,0.9-8.2-0.1C104.2,319,104.4,318.3,101.3,317z"/>
	<path class="st42" d="M106.2,316.1c-0.1,0-0.2-0.1-0.2-0.2c0-0.1,0-0.3,0.2-0.3c2.6-0.7,4.6-0.2,4.7-0.2c0.1,0,0.2,0.2,0.2,0.3
		c0,0.1-0.2,0.2-0.3,0.2C110.7,315.9,108.7,315.4,106.2,316.1C106.3,316.1,106.3,316.1,106.2,316.1z"/>
	<path class="st42" d="M105.7,315.2c-0.1,0-0.2-0.1-0.2-0.2c0-0.1,0-0.3,0.2-0.3c2.4-0.7,4.3-0.2,4.4-0.2c0.1,0,0.2,0.2,0.2,0.3
		c0,0.1-0.2,0.2-0.3,0.2C109.9,315,108,314.6,105.7,315.2C105.8,315.2,105.7,315.2,105.7,315.2z"/>
	<linearGradient id="SVGID_28_" gradientUnits="userSpaceOnUse" x1="63.2031" y1="286.0864" x2="91.0321" y2="286.0864">
		<stop  offset="0" style="stop-color:#6060A4"/>
		<stop  offset="0.9966" style="stop-color:#200455"/>
	</linearGradient>
	<path class="st43" d="M80.6,257.7c0,0-8.6,2.7-9.1,6.1c-0.5,3.4,2.7,23.1,3.7,28.9c1,5.7,3.7,21.8,3.7,21.8s4.6-1.5,10.1-0.5
		c0,0-0.2-30.4-2-38.5c0,0,3.7-4.2,6.4-4.7v-13H80.6z"/>
	<linearGradient id="SVGID_29_" gradientUnits="userSpaceOnUse" x1="131.2926" y1="277.6271" x2="104.014" y2="285.9416">
		<stop  offset="0" style="stop-color:#6060A4"/>
		<stop  offset="0.9966" style="stop-color:#200455"/>
	</linearGradient>
	<path class="st44" d="M109.1,257.7c0,0,8.6,2.7,9.1,6.1c0.5,3.4-2.7,23.1-3.7,28.9c-1,5.7-3.7,21.8-3.7,21.8s-4.6-1.5-10.1-0.5
		c0,0,0.2-30.4,2-38.5c0,0-3.7-4.2-6.4-4.7v-13H109.1z"/>
	<linearGradient id="SVGID_30_" gradientUnits="userSpaceOnUse" x1="93.5728" y1="276.1349" x2="93.9388" y2="273.4038">
		<stop  offset="0" style="stop-color:#6060A4"/>
		<stop  offset="0.9966" style="stop-color:#200455"/>
	</linearGradient>
	<path class="st45" d="M93.3,270.8c0,0,1.8-0.1,3.3,0v-9.5h-3.3V270.8z"/>
	<linearGradient id="SVGID_31_" gradientUnits="userSpaceOnUse" x1="70.2901" y1="209.4101" x2="97.9115" y2="237.0316">
		<stop  offset="2.600000e-07" style="stop-color:#FFF3A4"/>
		<stop  offset="1" style="stop-color:#FFCE5C"/>
	</linearGradient>
	<path class="st46" d="M113.6,213.7c0,0-4.3-3.6-18.3-4.3c-12.2,0.1-18.4,4.2-18.4,4.2c-2.9,9.5,1.7,43.1,1.7,43.1H112
		C112,256.7,116.5,223.2,113.6,213.7z"/>
	<linearGradient id="SVGID_32_" gradientUnits="userSpaceOnUse" x1="101.9841" y1="242.6146" x2="118.3711" y2="254.2714">
		<stop  offset="0" style="stop-color:#FFB39C"/>
		<stop  offset="1" style="stop-color:#FF825C"/>
	</linearGradient>
	<path class="st47" d="M109.5,258.9c0,0,12.2-4.5,13.9-8.7c0,0-0.6-10.7-12.5-2.8C110.9,247.4,108.2,252.1,109.5,258.9z"/>
	<linearGradient id="SVGID_33_" gradientUnits="userSpaceOnUse" x1="61.8302" y1="251.6797" x2="84.0788" y2="251.6797">
		<stop  offset="0" style="stop-color:#FFB39C"/>
		<stop  offset="1" style="stop-color:#FF825C"/>
	</linearGradient>
	<path class="st48" d="M81.1,258.9c0,0-12.2-4.5-13.9-8.7c0,0,0.6-10.7,12.6-2.8C79.8,247.4,82.5,252.1,81.1,258.9z"/>
	<linearGradient id="SVGID_34_" gradientUnits="userSpaceOnUse" x1="58.6546" y1="215.7211" x2="81.4724" y2="243.2926">
		<stop  offset="2.600000e-07" style="stop-color:#FFF3A4"/>
		<stop  offset="1" style="stop-color:#FFCE5C"/>
	</linearGradient>
	<path class="st49" d="M76.9,213.6c0,0,5.2,7.3,3.5,18.4l-0.7,15.4c0,0-10.2-5.8-12.6,2.8c0,0,0.1-5.8,1.8-14.1
		C70.6,227.8,68.1,219.4,76.9,213.6z"/>
	<linearGradient id="SVGID_35_" gradientUnits="userSpaceOnUse" x1="99.9227" y1="238.6091" x2="119.9048" y2="231.4628">
		<stop  offset="2.600000e-07" style="stop-color:#FFF3A4"/>
		<stop  offset="1" style="stop-color:#FFCE5C"/>
	</linearGradient>
	<path class="st50" d="M113.6,213.7c0,0-5.1,7.1-3.4,18.3l0.7,15.4c0,0,10.2-5.8,12.5,2.8c0,0,0-5.8-1.7-14.1
		C120,227.8,122.4,219.5,113.6,213.7z"/>
	<linearGradient id="SVGID_36_" gradientUnits="userSpaceOnUse" x1="95.5516" y1="223.315" x2="95.1473" y2="210.2984">
		<stop  offset="0" style="stop-color:#FFB39C"/>
		<stop  offset="1" style="stop-color:#FF825C"/>
	</linearGradient>
	<path class="st51" d="M88.1,209.8c0,0-1.1,11,7.2,11.1c8.5,0.1,6.8-10.9,6.8-10.9S94.5,208,88.1,209.8z"/>
	<linearGradient id="SVGID_37_" gradientUnits="userSpaceOnUse" x1="102.834" y1="214.9828" x2="103.3836" y2="201.7935">
		<stop  offset="0" style="stop-color:#FFB39C"/>
		<stop  offset="1" style="stop-color:#FF825C"/>
	</linearGradient>
	<path class="st52" d="M102.9,204.4c0,0,1.2,0.1,1.2,1.4c0,2.2-1.9,4.1-1.9,4.1S102.2,206.3,102.9,204.4z"/>
	<linearGradient id="SVGID_38_" gradientUnits="userSpaceOnUse" x1="87.0573" y1="214.3254" x2="87.6069" y2="201.1362">
		<stop  offset="0" style="stop-color:#FFB39C"/>
		<stop  offset="1" style="stop-color:#FF825C"/>
	</linearGradient>
	<path class="st53" d="M87.7,204.4c0,0-1.2,0.1-1.2,1.4c0,2.2,1.6,4,1.6,4S88.4,206.3,87.7,204.4z"/>
	<linearGradient id="SVGID_39_" gradientUnits="userSpaceOnUse" x1="94.8549" y1="214.6503" x2="95.4045" y2="201.4611">
		<stop  offset="0" style="stop-color:#FFB39C"/>
		<stop  offset="1" style="stop-color:#FF825C"/>
	</linearGradient>
	<path class="st54" d="M87.7,203.6c0,0-0.8,11.1,4.7,13.7c5.6,2.5,9-3.2,9.6-5.6c0.7-2.4,0.8-8.1,0.8-8.1S94.5,197.2,87.7,203.6z"/>
	<path class="st25" d="M87.1,204.6c0,0-1.5-5.1,0.7-8.2c2.2-3,6.1-3,8.3-3s6.3,1.1,7.5,3.6c1.2,2.5,0.2,7.8,0.2,7.8
		s-2.9-1.2-3.7-1.2c-0.8,0-3.2,1.4-6.3,0.3C90.8,203,90.7,203.2,87.1,204.6z"/>
	<linearGradient id="SVGID_40_" gradientUnits="userSpaceOnUse" x1="68.9405" y1="250.8627" x2="154.3729" y2="250.8627">
		<stop  offset="0" style="stop-color:#F5E9FF"/>
		<stop  offset="1" style="stop-color:#B1AFFF"/>
	</linearGradient>
	<path class="st55" d="M112.6,241.7l-2.8,18l-0.1,0.7c-0.1,0.5-0.5,0.9-1,0.9H81.7c-0.5,0-1-0.4-1-0.9l-0.1-0.7l-2.8-18
		c-0.1-0.6,0.4-1.2,1-1.2h32.8C112.2,240.5,112.6,241,112.6,241.7z"/>
	<path class="st25" d="M95.8,205.5c-1.1,0-2-0.4-2.8-0.8c-0.5-0.2-0.9-0.5-1.4-0.6c-0.4-0.1-0.9,0-1.6,0.2c-0.8,0.2-1.8,0.5-2.8,0.2
		c-0.1,0-0.2-0.2-0.2-0.3c0-0.1,0.2-0.2,0.3-0.2c0.9,0.2,1.7,0,2.5-0.2c0.7-0.2,1.3-0.3,1.8-0.2c0.5,0.1,1,0.4,1.5,0.6
		c1.6,0.8,3.4,1.7,6.9-1.4c0.1-0.1,0.3-0.1,0.4,0c0.1,0.1,0.1,0.3,0,0.4C98.5,205,97,205.5,95.8,205.5z"/>
	<path class="st56" d="M86.8,275.3c-0.1,0-0.2,0-0.2-0.1c-0.9-1.7-3-3.9-3.5-4.1c-0.1,0-0.1,0-0.2-0.1c-0.1-0.1-0.1-0.3,0-0.4
		c0.1-0.1,0.2-0.1,0.3-0.1c0.5,0.1,2.9,2.6,3.9,4.4c0.1,0.1,0,0.3-0.1,0.3C86.9,275.3,86.8,275.3,86.8,275.3z M83.2,271L83.2,271
		L83.2,271z M83.2,271L83.2,271L83.2,271z"/>
	<path class="st56" d="M86.8,275.8c0,0-0.1,0-0.1,0c-0.5-0.3-1.9-0.4-2.4-0.5c-0.1,0-0.2-0.1-0.2-0.3c0-0.1,0.1-0.2,0.3-0.2
		c0.1,0,1.9,0.2,2.6,0.5c0.1,0.1,0.2,0.2,0.1,0.3C87,275.7,86.9,275.8,86.8,275.8z"/>
	<path class="st56" d="M102.8,275.3c0,0-0.1,0-0.1,0c-0.1-0.1-0.2-0.2-0.1-0.3c0.7-1.6,1.9-3.3,2.8-3.7c0.1-0.1,0.3,0,0.3,0.1
		c0.1,0.1,0,0.3-0.1,0.3c-0.7,0.3-1.8,1.7-2.6,3.4C103,275.2,102.9,275.3,102.8,275.3z"/>
	<path class="st56" d="M103.3,275.4c-0.1,0-0.2-0.1-0.2-0.1c-0.1-0.1,0-0.3,0.1-0.3c0.7-0.3,1.4-0.5,1.4-0.5c0.1,0,0.3,0,0.3,0.2
		c0,0.1,0,0.3-0.2,0.3c0,0-0.7,0.2-1.3,0.5C103.4,275.4,103.4,275.4,103.3,275.4z"/>
	<path class="st56" d="M78.8,312.9c-0.1,0-0.2,0-0.2-0.1c-0.1-0.1,0-0.3,0.1-0.4c0,0,4.6-2.7,10.3-0.6c0.1,0,0.2,0.2,0.1,0.3
		c0,0.1-0.2,0.2-0.3,0.1c-5.5-2.1-9.8,0.5-9.9,0.5C78.9,312.9,78.8,312.9,78.8,312.9z"/>
	<path class="st56" d="M110.8,312.9c0,0-0.1,0-0.1,0c0,0-4.2-2.6-9.7-0.5c-0.1,0-0.3,0-0.3-0.1c0-0.1,0-0.3,0.1-0.3
		c5.7-2.2,10,0.4,10.1,0.6c0.1,0.1,0.2,0.2,0.1,0.4C111,312.9,110.9,312.9,110.8,312.9z"/>
	<linearGradient id="SVGID_41_" gradientUnits="userSpaceOnUse" x1="78.7467" y1="247.8223" x2="85.3353" y2="252.7778">
		<stop  offset="0" style="stop-color:#F5E9FF"/>
		<stop  offset="1" style="stop-color:#B1AFFF"/>
	</linearGradient>
	<path class="st57" d="M109.7,259.6l-0.1,0.7c-0.1,0.5-0.5,0.9-1,0.9H81.7c-0.5,0-1-0.4-1-0.9l-0.1-0.7H109.7z"/>
	<linearGradient id="SVGID_42_" gradientUnits="userSpaceOnUse" x1="90.0624" y1="240.5351" x2="92.1114" y2="242.0763">
		<stop  offset="0" style="stop-color:#F5E9FF"/>
		<stop  offset="1" style="stop-color:#B1AFFF"/>
	</linearGradient>
	<rect x="91.1" y="243.6" class="st58" width="8.1" height="1.5"/>
</g>
</svg>
