<?xml version="1.0" encoding="utf-8"?>
<!-- Generator: Adobe Illustrator 24.0.2, SVG Export Plug-In . SVG Version: 6.00 Build 0)  -->
<svg version="1.1" id="Layer_1" xmlns="http://www.w3.org/2000/svg" xmlns:xlink="http://www.w3.org/1999/xlink" x="0px" y="0px"
	 viewBox="0 0 438.2 308.2" style="enable-background:new 0 0 438.2 308.2;" xml:space="preserve">
<style type="text/css">
	.st0{fill:#9173DC;}
	.st1{fill:#EFEEFF;}
	.st2{fill:#DBD3F8;}
	.st3{fill:#C7C2F0;}
	.st4{fill:#938AE4;}
	.st5{fill:url(#SVGID_1_);}
	.st6{fill:url(#SVGID_2_);}
	.st7{fill:url(#SVGID_3_);}
	.st8{fill:url(#SVGID_4_);}
	.st9{fill:url(#SVGID_5_);}
	.st10{fill:#FFFFFF;}
	.st11{fill:url(#SVGID_6_);}
	.st12{fill:#FFD258;}
	.st13{fill:#1E035B;}
	.st14{fill:url(#SVGID_7_);}
	.st15{fill:url(#SVGID_8_);}
	.st16{fill:url(#SVGID_9_);}
	.st17{fill:url(#SVGID_10_);}
	.st18{fill:url(#SVGID_11_);}
	.st19{fill:url(#SVGID_12_);}
	.st20{fill:url(#SVGID_13_);}
	.st21{fill:url(#SVGID_14_);}
	.st22{fill:url(#SVGID_15_);}
	.st23{fill:#FFDA6B;}
	.st24{fill:url(#SVGID_16_);}
	.st25{fill:#FF8D68;}
	.st26{fill:#FF9B7E;}
	.st27{fill:url(#SVGID_17_);}
	.st28{fill:url(#SVGID_18_);}
	.st29{fill:url(#SVGID_19_);}
	.st30{fill:url(#SVGID_20_);}
	.st31{fill:url(#SVGID_21_);}
	.st32{fill:url(#SVGID_22_);}
	.st33{fill:url(#SVGID_23_);}
	.st34{fill:url(#SVGID_24_);}
	.st35{fill:url(#SVGID_25_);}
	.st36{fill:url(#SVGID_26_);}
	.st37{fill:#FFBC37;}
	.st38{fill:#FFC449;}
	.st39{fill:url(#SVGID_27_);}
	.st40{fill:#FFF1BF;}
	.st41{fill:#614DC9;}
	.st42{fill:url(#SVGID_28_);}
	.st43{fill:url(#SVGID_29_);}
	.st44{fill:url(#SVGID_30_);}
	.st45{fill:url(#SVGID_31_);}
	.st46{fill:url(#SVGID_32_);}
	.st47{fill:url(#SVGID_33_);}
	.st48{fill:url(#SVGID_34_);}
	.st49{fill:url(#SVGID_35_);}
	.st50{fill:url(#SVGID_36_);}
	.st51{fill:url(#SVGID_37_);}
	.st52{fill:url(#SVGID_38_);}
	.st53{fill:url(#SVGID_39_);}
	.st54{fill:#FF325B;}
	.st55{fill:#FF886B;}
	.st56{fill:url(#SVGID_40_);}
	.st57{fill:url(#SVGID_41_);}
	.st58{fill:url(#SVGID_42_);}
	.st59{fill:url(#SVGID_43_);}
	.st60{fill:#FFB400;}
	.st61{fill:url(#SVGID_44_);}
	.st62{fill:url(#SVGID_45_);}
	.st63{fill:url(#SVGID_46_);}
	.st64{fill:url(#SVGID_47_);}
	.st65{fill:url(#SVGID_48_);}
	.st66{fill:url(#SVGID_49_);}
	.st67{fill:url(#SVGID_50_);}
	.st68{fill:url(#SVGID_51_);}
	.st69{fill:url(#SVGID_52_);}
	.st70{fill:url(#SVGID_53_);}
	.st71{fill:url(#SVGID_54_);}
	.st72{fill:url(#SVGID_55_);}
	.st73{fill:url(#SVGID_56_);}
	.st74{fill:url(#SVGID_57_);}
	.st75{fill:#FF3961;}
	.st76{fill:url(#SVGID_58_);}
	.st77{fill:url(#SVGID_59_);}
	.st78{fill:#E7D9FF;}
	.st79{fill:#40347F;}
	.st80{fill:url(#SVGID_60_);}
	.st81{fill:#341C6E;}
	.st82{fill:url(#SVGID_61_);}
	.st83{fill:url(#SVGID_62_);}
	.st84{fill:url(#SVGID_63_);}
	.st85{fill:url(#SVGID_64_);}
	.st86{fill:url(#SVGID_65_);}
	.st87{fill:url(#SVGID_66_);}
	.st88{fill:url(#SVGID_67_);}
	.st89{fill:url(#SVGID_68_);}
	.st90{fill:url(#SVGID_69_);}
	.st91{fill:url(#SVGID_70_);}
	.st92{fill:url(#SVGID_71_);}
	.st93{fill:url(#SVGID_72_);}
	.st94{fill:url(#SVGID_73_);}
	.st95{fill:#43468A;}
	.st96{fill:url(#SVGID_74_);}
	.st97{fill:url(#SVGID_75_);}
</style>
<g>
	<path class="st0" d="M438.2,297c0,0.5-0.5,1-1,1H10c-0.6,0-1-0.4-1-1c0-0.5,0.5-1,1-1h427.2C437.8,296,438.2,296.5,438.2,297z"/>
	<path class="st0" d="M192.7,308.2H78.4c-0.6,0-1-0.4-1-1l0,0c0-0.5,0.5-1,1-1h114.2c0.6,0,1,0.4,1,1l0,0
		C193.7,307.8,193.2,308.2,192.7,308.2z"/>
	<path class="st0" d="M368.1,308.2h-86.1c-0.6,0-1-0.4-1-1l0,0c0-0.5,0.5-1,1-1h86.1c0.6,0,1,0.4,1,1l0,0
		C369.1,307.8,368.6,308.2,368.1,308.2z"/>
	<path class="st0" d="M318.3,303H128.9c-0.7,0-1.2-0.4-1.2-1l0,0c0-0.5,0.5-1,1.2-1h189.4c0.7,0,1.2,0.4,1.2,1l0,0
		C319.5,302.6,318.9,303,318.3,303z"/>
</g>
<g>
	<path class="st0" d="M140.7,211.1c0,0-58.5-13.6-81.7-68l20.9,1.1l-23.6-8.1c-2.5-7.1-4.3-14.8-5.4-23.2l13.1,1.8l-13.7-7.1
		c-1.6-17.1,0-36.8,5.9-59.6c0,0,23.6,8.9,46,28l0.3,10.3l5-5.5c13.4,12.5,25.6,28.9,31.1,49.2C153,183,140.7,211.1,140.7,211.1z"/>
	<path class="st1" d="M140.6,211.6c-0.2,0-0.3-0.1-0.4-0.3C106,134.6,56.3,49.1,55.8,48.3c-0.1-0.2-0.1-0.6,0.2-0.7
		c0.2-0.1,0.6-0.1,0.7,0.2c0.5,0.9,50.3,86.4,84.5,163.2c0.1,0.3,0,0.6-0.3,0.7C140.8,211.6,140.7,211.6,140.6,211.6z"/>
	<path class="st1" d="M72.8,77.1l-21.3-5.7c-0.3-0.1-0.4-0.4-0.4-0.6c0.1-0.3,0.4-0.4,0.6-0.4l20.2,5.4L74,56.8
		c0-0.3,0.3-0.5,0.6-0.5c0.3,0.1,0.5,0.3,0.5,0.6L72.8,77.1z"/>
	<path class="st1" d="M49.7,98.6c-0.3,0-0.5-0.3-0.4-0.6c0-0.3,0.3-0.5,0.6-0.4l36.8,4.9l6.5-33.4c0.1-0.3,0.3-0.5,0.6-0.4
		c0.3,0.1,0.5,0.3,0.4,0.6l-6.6,34.3L49.7,98.6L49.7,98.6z"/>
	<path class="st1" d="M102.8,133.6l-50.2-9.7c-0.3-0.1-0.5-0.3-0.4-0.6c0.1-0.3,0.3-0.5,0.6-0.4l49.2,9.5l11.7-44.8
		c0.1-0.3,0.4-0.4,0.6-0.4c0.3,0.1,0.4,0.4,0.4,0.6L102.8,133.6z"/>
	<path class="st1" d="M63.6,153.2c-0.3,0-0.5-0.3-0.4-0.6c0-0.3,0.3-0.5,0.6-0.4l52.1,6.8l18.3-40.6c0.1-0.3,0.4-0.4,0.7-0.3
		c0.3,0.1,0.4,0.4,0.3,0.7l-18.6,41.3L63.6,153.2C63.6,153.2,63.6,153.2,63.6,153.2z"/>
	<path class="st1" d="M130.1,187.7l-45.7-7.6c-0.3,0-0.5-0.3-0.4-0.6c0-0.3,0.3-0.5,0.6-0.4l44.9,7.4l13.5-33.9
		c0.1-0.3,0.4-0.4,0.7-0.3c0.3,0.1,0.4,0.4,0.3,0.7L130.1,187.7z"/>
</g>
<g>
	<path class="st0" d="M336,239.4c0,0,39.8-16.6,49.9-56.5l-14.6,3.3l15.8-8.4c0.9-5.1,1.4-10.6,1.2-16.4l-9,2.9l8.8-6.5
		c-0.8-11.8-4.1-25-10.9-39.8c0,0-15.6,9-29.3,24.8l0.9,7l-4.1-3.1c-8,10.2-14.8,22.8-16.4,37.4C324.1,221.9,336,239.4,336,239.4z"
		/>
	<path class="st1" d="M336.1,239.9c-0.1,0-0.2,0-0.3,0c-0.3-0.1-0.4-0.4-0.4-0.6c15.5-56.5,40.9-120.9,41.2-121.5
		c0.1-0.3,0.4-0.4,0.7-0.3c0.3,0.1,0.4,0.4,0.3,0.7c-0.3,0.6-25.7,65-41.1,121.4C336.4,239.8,336.3,239.9,336.1,239.9z"/>
	<path class="st1" d="M368.7,140l-3.9-13.6c-0.1-0.3,0.1-0.6,0.4-0.6c0.3-0.1,0.6,0.1,0.6,0.4l3.6,12.4l13.5-6.1
		c0.3-0.1,0.6,0,0.7,0.3c0.1,0.3,0,0.6-0.3,0.7L368.7,140z"/>
	<path class="st1" d="M387.5,151.7L387.5,151.7l-26.2,8.2l-8.6-22.6c-0.1-0.3,0-0.6,0.3-0.7c0.3-0.1,0.6,0,0.7,0.3l8.3,21.7
		l25.3-7.9c0.3-0.1,0.6,0.1,0.7,0.3C387.9,151.3,387.8,151.6,387.5,151.7z"/>
	<path class="st1" d="M353.9,182.2l-13.7-29.7c-0.1-0.3,0-0.6,0.3-0.7c0.3-0.1,0.6,0,0.7,0.3l13.3,28.9l33.5-12.6
		c0.3-0.1,0.6,0,0.7,0.3c0.1,0.3,0,0.6-0.3,0.7L353.9,182.2z"/>
	<path class="st1" d="M383.9,190.6C383.9,190.6,383.9,190.6,383.9,190.6l-36.6,11.3l-17.9-25.8c-0.2-0.2-0.1-0.6,0.1-0.7
		c0.2-0.2,0.6-0.1,0.7,0.1l17.4,25.2l35.9-11.1c0.3-0.1,0.6,0.1,0.7,0.3C384.3,190.2,384.1,190.5,383.9,190.6z"/>
	<path class="st1" d="M340.8,222.4L327,200.4c-0.2-0.2-0.1-0.6,0.2-0.7c0.2-0.2,0.6-0.1,0.7,0.2l13.3,21.2l30.7-10.7
		c0.3-0.1,0.6,0,0.7,0.3c0.1,0.3,0,0.6-0.3,0.7L340.8,222.4z"/>
</g>
<g>
	<path class="st2" d="M122.1,158.2c0,0,37.5-21.1,43-62l-14.2,5l14.7-10.2c0.3-5.2,0.1-10.7-0.7-16.5l-8.6,3.9l8-7.5
		c-2.2-11.6-7.1-24.4-15.5-38.2c0,0-14.5,10.8-26.1,28.1l1.8,6.9l-4.5-2.6c-6.7,11.1-12,24.4-11.9,39
		C108.3,142.2,122.1,158.2,122.1,158.2z"/>
	<path class="st1" d="M122.4,158.7c-0.1,0-0.2,0.1-0.3,0c-0.3,0-0.5-0.3-0.4-0.6c8.7-57.9,26.5-124.8,26.6-125.5
		c0.1-0.3,0.4-0.4,0.6-0.4c0.3,0.1,0.4,0.4,0.4,0.6c-0.2,0.7-17.9,67.5-26.6,125.4C122.6,158.5,122.5,158.6,122.4,158.7z"/>
	<path class="st1" d="M142.9,55.7l-5.5-13c-0.1-0.3,0-0.6,0.3-0.7c0.3-0.1,0.6,0,0.7,0.3l5,11.9l12.7-7.7c0.2-0.1,0.6-0.1,0.7,0.2
		c0.1,0.2,0.1,0.6-0.2,0.7L142.9,55.7z"/>
	<path class="st1" d="M163,65.1L163,65.1l-25.1,11.2l-11.2-21.5c-0.1-0.3,0-0.6,0.2-0.7c0.2-0.1,0.6,0,0.7,0.2l10.8,20.6l24.2-10.8
		c0.3-0.1,0.6,0,0.7,0.3C163.4,64.6,163.3,64.9,163,65.1z"/>
	<path class="st1" d="M133.2,99.3l-17.1-27.9c-0.1-0.2-0.1-0.6,0.2-0.7c0.2-0.2,0.6-0.1,0.7,0.2l16.6,27.1l31.8-16.4
		c0.3-0.1,0.6,0,0.7,0.2c0.1,0.3,0,0.6-0.2,0.7L133.2,99.3z"/>
	<path class="st1" d="M164,104.1C164,104.1,164,104.1,164,104.1l-35.1,15.5l-20.8-23.5c-0.2-0.2-0.2-0.5,0-0.7
		c0.2-0.2,0.5-0.2,0.7,0l20.3,23l34.4-15.2c0.3-0.1,0.6,0,0.7,0.3C164.3,103.7,164.2,104,164,104.1z"/>
	<path class="st1" d="M124.9,140.7l-16.2-20.2c-0.2-0.2-0.1-0.6,0.1-0.7c0.2-0.2,0.6-0.1,0.7,0.1l15.7,19.5l29.3-14.2
		c0.3-0.1,0.6,0,0.7,0.2c0.1,0.3,0,0.6-0.2,0.7L124.9,140.7z"/>
</g>
<g>
	<path class="st3" d="M319,283.3c0,0,37.8,12.2,68.9-9.7l-12.3-6.4l16.1,3.5c3.7-3,7.3-6.6,10.7-10.8l-8-3.4l10.1,0.7
		c6.5-8.8,12.1-20.1,16.2-34.5c0,0-16.4-3-35.4-0.1l-3.5,5.5l-1-4.7c-11.7,2.4-24,7.2-33.9,16.4C321.2,263.9,319,283.3,319,283.3z"
		/>
	<path class="st1" d="M318.9,283.7c-0.1,0-0.2-0.1-0.2-0.2c-0.1-0.2-0.1-0.5,0.1-0.7c44.7-30.4,101.2-60.3,101.7-60.6
		c0.2-0.1,0.5,0,0.6,0.2c0.1,0.2,0,0.5-0.2,0.6c-0.6,0.3-57,30.2-101.7,60.6C319.2,283.8,319,283.8,318.9,283.7z"/>
	<path class="st1" d="M401.6,233.1l5.4-11.9c0.1-0.2,0.4-0.3,0.6-0.2c0.2,0.1,0.3,0.4,0.2,0.6l-4.9,10.9l13.1,3.8
		c0.3,0.1,0.4,0.3,0.3,0.6c-0.1,0.3-0.3,0.4-0.6,0.3L401.6,233.1z"/>
	<path class="st1" d="M407.8,252.6L407.8,252.6l-23.3-9.9l7.5-21.1c0.1-0.2,0.4-0.4,0.6-0.3c0.2,0.1,0.4,0.4,0.3,0.6l-7.2,20.2
		l22.5,9.6c0.2,0.1,0.4,0.4,0.3,0.6C408.3,252.5,408,252.7,407.8,252.6z"/>
	<path class="st1" d="M365.9,253.8l8.2-29.1c0.1-0.3,0.3-0.4,0.6-0.3c0.3,0.1,0.4,0.3,0.3,0.6l-8,28.2l31.1,11.3
		c0.2,0.1,0.4,0.4,0.3,0.6c-0.1,0.2-0.4,0.4-0.6,0.3L365.9,253.8z"/>
	<path class="st1" d="M381.9,277.7C381.9,277.7,381.9,277.7,381.9,277.7l-32.5-14l2.9-28.8c0-0.3,0.3-0.5,0.5-0.4
		c0.3,0,0.5,0.3,0.4,0.5l-2.9,28.1l31.9,13.7c0.2,0.1,0.4,0.4,0.3,0.6C382.5,277.7,382.2,277.8,381.9,277.7z"/>
	<path class="st1" d="M332.6,274.1l3.5-23.6c0-0.3,0.3-0.4,0.5-0.4c0.3,0,0.4,0.3,0.4,0.5l-3.4,22.9l28,10.9
		c0.2,0.1,0.4,0.4,0.3,0.6c-0.1,0.2-0.4,0.4-0.6,0.3L332.6,274.1z"/>
</g>
<g>
	<path class="st2" d="M116.3,235c0,0-46.1,11-81.2-17.2l15.2-6.5l-19.5,2.7c-4.2-3.9-8.1-8.3-11.8-13.5l9.9-3.3l-12.1,0
		c-7-10.8-12.7-24.4-16.3-41.6c0,0,19.7-2.2,42.1,2.8l3.7,6.7l1.6-5.4c13.8,3.8,28,10.4,38.9,22C115.4,212.2,116.3,235,116.3,235z"
		/>
	<path class="st1" d="M116.5,235.6c0.1,0,0.2-0.1,0.3-0.2c0.2-0.2,0.2-0.6-0.1-0.8C66.1,195.4,1.5,155.7,0.9,155.3
		c-0.3-0.2-0.6-0.1-0.8,0.2c-0.2,0.3-0.1,0.6,0.2,0.8c0.6,0.4,65.2,40.1,115.7,79.2C116.1,235.6,116.3,235.6,116.5,235.6z"/>
	<path class="st1" d="M22.5,169.5l-5.4-14.3c-0.1-0.3-0.4-0.4-0.7-0.3c-0.3,0.1-0.4,0.4-0.3,0.7l4.9,13.1L5,172
		c-0.3,0.1-0.5,0.4-0.4,0.7c0.1,0.3,0.4,0.5,0.7,0.4L22.5,169.5z"/>
	<path class="st1" d="M13.4,191.7L13.4,191.7l28.6-9.6l-7.1-25.2c-0.1-0.3-0.4-0.5-0.7-0.4c-0.3,0.1-0.5,0.4-0.4,0.7l6.8,24.2
		L13,190.7c-0.3,0.1-0.5,0.4-0.4,0.7C12.8,191.7,13.1,191.8,13.4,191.7z"/>
	<path class="st1" d="M63.1,196.7l-7.2-34.6c-0.1-0.3-0.4-0.5-0.7-0.4c-0.3,0.1-0.5,0.4-0.4,0.7l7,33.6l-37.9,10.5
		c-0.3,0.1-0.5,0.4-0.4,0.7c0.1,0.3,0.4,0.5,0.7,0.4L63.1,196.7z"/>
	<path class="st1" d="M42,223.2C42,223.2,42,223.2,42,223.2l39.9-13.6l-1-33.9c0-0.3-0.3-0.6-0.6-0.5c-0.3,0-0.6,0.3-0.6,0.6l1,33
		l-39.1,13.3c-0.3,0.1-0.5,0.4-0.4,0.7C41.4,223.1,41.7,223.3,42,223.2z"/>
	<path class="st1" d="M101,223.2l-2.1-27.9c0-0.3-0.3-0.5-0.6-0.5c-0.3,0-0.6,0.3-0.5,0.6l2,27l-34.2,10.4c-0.3,0.1-0.5,0.4-0.4,0.7
		c0.1,0.3,0.4,0.5,0.7,0.4L101,223.2z"/>
</g>
<path class="st4" d="M411.5,164.3c-0.2-0.1-0.2-0.3-0.1-0.4c0.5-0.9,1-1.8,1.5-2.7c0.1-0.2,0.3-0.2,0.4-0.1c0.2,0.1,0.2,0.3,0.2,0.4
	c-0.5,0.9-1,1.8-1.5,2.7c0,0,0,0-0.1,0.1C411.8,164.3,411.6,164.4,411.5,164.3z M414.3,158.8c-0.2-0.1-0.2-0.2-0.2-0.4
	c0.4-0.9,0.9-1.9,1.3-2.8c0.1-0.2,0.3-0.2,0.4-0.2c0.2,0.1,0.3,0.2,0.2,0.4c-0.4,0.9-0.8,1.9-1.3,2.8c0,0,0,0.1-0.1,0.1
	C414.6,158.8,414.5,158.8,414.3,158.8z M416.8,153.1c-0.2-0.1-0.3-0.2-0.2-0.4c0.4-1,0.7-1.9,1-2.9c0.1-0.2,0.2-0.3,0.4-0.2
	c0.2,0,0.3,0.2,0.2,0.4c-0.3,1-0.6,1.9-1,2.9c0,0,0,0.1-0.1,0.1C417,153.1,416.9,153.2,416.8,153.1z M418.7,147.3
	c-0.2,0-0.3-0.2-0.2-0.4c0.3-1,0.5-2,0.7-3c0-0.2,0.2-0.3,0.4-0.2c0.2,0,0.3,0.2,0.3,0.4c-0.2,1-0.4,2-0.7,3c0,0.1,0,0.1-0.1,0.1
	C418.9,147.3,418.8,147.3,418.7,147.3z M420,141.3c-0.2,0-0.3-0.2-0.3-0.3c0.2-1,0.3-2,0.4-3c0-0.2,0.2-0.3,0.4-0.3
	c0.2,0,0.3,0.2,0.3,0.3c-0.1,1-0.2,2-0.4,3c0,0.1,0,0.1-0.1,0.2C420.2,141.3,420.1,141.3,420,141.3z M420.5,135.3
	c-0.2,0-0.3-0.1-0.3-0.3c0-1,0-1.9,0-2.9l0-0.1c0-0.2,0.1-0.3,0.3-0.3c0.2,0,0.3,0.1,0.3,0.3l0,0.1c0,1,0,2,0,2.9
	c0,0.1,0,0.1-0.1,0.2C420.7,135.2,420.6,135.3,420.5,135.3z M420.3,129.2c-0.2,0-0.3-0.1-0.4-0.3c-0.1-1-0.3-2-0.4-3
	c0-0.2,0.1-0.3,0.3-0.3c0.2,0,0.4,0.1,0.4,0.2c0.2,1,0.3,2,0.4,3c0,0.1,0,0.2-0.1,0.2C420.5,129.2,420.4,129.2,420.3,129.2z
	 M419.3,123.2c-0.2,0-0.4-0.1-0.4-0.2c-0.2-1-0.5-2-0.8-2.9c-0.1-0.2,0-0.3,0.2-0.4c0.2,0,0.4,0,0.4,0.2c0.3,1,0.6,2,0.9,3
	c0,0.1,0,0.2-0.1,0.3C419.4,123.2,419.3,123.2,419.3,123.2z M417.4,117.4c-0.2,0.1-0.4,0-0.4-0.2c-0.4-0.9-0.8-1.9-1.2-2.8
	c-0.1-0.2,0-0.3,0.2-0.4c0.2-0.1,0.4,0,0.4,0.2c0.4,0.9,0.9,1.9,1.3,2.8c0,0.1,0,0.2-0.1,0.3C417.5,117.3,417.5,117.4,417.4,117.4z
	 M414.8,111.8c-0.2,0.1-0.4,0-0.4-0.1c-0.5-0.9-1.1-1.8-1.6-2.6c-0.1-0.1,0-0.3,0.1-0.4c0.2-0.1,0.4,0,0.5,0.1
	c0.6,0.9,1.1,1.8,1.6,2.7C415,111.5,414.9,111.6,414.8,111.8C414.8,111.8,414.8,111.8,414.8,111.8z M411.3,106.6
	c-0.2,0.1-0.4,0.1-0.5-0.1c-0.6-0.8-1.3-1.6-2-2.4c-0.1-0.1-0.1-0.3,0-0.4c0.1-0.1,0.4-0.1,0.5,0c0.7,0.8,1.4,1.6,2,2.4
	C411.5,106.3,411.5,106.4,411.3,106.6C411.4,106.6,411.3,106.6,411.3,106.6z M407.1,101.9c-0.1,0.1-0.3,0.1-0.5,0
	c-0.7-0.7-1.5-1.4-2.3-2l-0.1-0.1c-0.1-0.1-0.1-0.3,0-0.4l0,0c0.1-0.1,0.3-0.1,0.5,0l0.1,0.1c0.8,0.7,1.6,1.3,2.3,2
	C407.3,101.5,407.3,101.7,407.1,101.9C407.2,101.8,407.2,101.8,407.1,101.9z M405.4,98.6c-0.1-0.1-0.2-0.3,0-0.4
	c0.7-0.8,1.4-1.6,2-2.4c0.1-0.1,0.3-0.2,0.5-0.1c0.2,0.1,0.2,0.3,0.1,0.4c-0.6,0.8-1.3,1.6-2,2.4c0,0,0,0,0,0
	C405.7,98.7,405.5,98.7,405.4,98.6z M403.6,100.9c-0.8,0.7-1.6,1.4-2.5,2.1c-0.1,0.1-0.4,0.1-0.5,0c-0.1-0.1-0.1-0.3,0-0.4
	c0.8-0.6,1.6-1.3,2.4-2c0.1-0.1,0.3-0.1,0.5,0C403.7,100.5,403.7,100.7,403.6,100.9C403.6,100.8,403.6,100.9,403.6,100.9z
	 M409.2,93.7c-0.2-0.1-0.2-0.3-0.1-0.4c0.5-0.9,1-1.8,1.5-2.7c0.1-0.2,0.3-0.2,0.4-0.2c0.2,0.1,0.2,0.2,0.2,0.4
	c-0.4,0.9-0.9,1.8-1.5,2.8c0,0,0,0,0,0.1C409.5,93.7,409.4,93.8,409.2,93.7z M398.4,104.7c-0.4,0.2-0.8,0.4-1.1,0.6
	c-0.6,0.3-1.3,0.5-2,0.7c-0.2,0-0.4-0.1-0.4-0.2c0-0.2,0.1-0.3,0.2-0.4c0.7-0.2,1.3-0.4,1.8-0.6c0.3-0.2,0.7-0.3,1.1-0.6
	c0.2-0.1,0.4,0,0.5,0.1C398.5,104.4,398.5,104.6,398.4,104.7C398.4,104.7,398.4,104.7,398.4,104.7z M411.9,88.1
	c-0.2,0-0.3-0.2-0.2-0.4c0.3-1,0.5-2,0.7-2.9c0-0.2,0.2-0.3,0.4-0.3c0.2,0,0.3,0.2,0.3,0.3c-0.2,1-0.4,2-0.7,3c0,0,0,0.1-0.1,0.1
	C412.1,88.1,412,88.2,411.9,88.1z M401.8,97.8c-0.9-0.6-1.8-1.2-2.7-1.7c-0.2-0.1-0.2-0.3-0.1-0.4c0.1-0.1,0.3-0.2,0.5-0.1
	c0.9,0.5,1.9,1.1,2.8,1.7c0.1,0.1,0.2,0.3,0.1,0.4c0,0,0,0,0,0C402.1,97.9,401.9,97.9,401.8,97.8z M391.9,106.4
	c-1.2,0-2.3-0.2-3.4-0.5c-0.2-0.1-0.3-0.2-0.2-0.4c0.1-0.2,0.2-0.2,0.4-0.2c1,0.3,2.1,0.4,3.2,0.4c0.2,0,0.3,0.1,0.3,0.3
	c0,0.1,0,0.1-0.1,0.2C392.1,106.4,392,106.4,391.9,106.4z M412.9,82.1c-0.2,0-0.3-0.1-0.3-0.3c0-1-0.1-2-0.3-3
	c0-0.2,0.1-0.3,0.3-0.3c0.2,0,0.4,0.1,0.4,0.3c0.2,1,0.3,2,0.3,3.1c0,0.1,0,0.2-0.1,0.2C413.1,82.1,413,82.1,412.9,82.1z
	 M396.1,94.7c-1.1-0.4-2.1-0.7-3.1-0.9c-0.2,0-0.3-0.2-0.3-0.4c0-0.2,0.2-0.3,0.4-0.2c1,0.2,2.1,0.5,3.2,1c0.2,0.1,0.2,0.2,0.2,0.4
	c0,0,0,0.1-0.1,0.1C396.4,94.7,396.3,94.8,396.1,94.7z M385.4,104.5c-0.1-0.1-0.3-0.2-0.4-0.3c-0.6-0.5-1.2-1.1-1.6-1.8
	c-0.1-0.1-0.1-0.2-0.2-0.3c-0.1-0.2,0-0.3,0.2-0.4c0.2-0.1,0.4,0,0.4,0.1c0.1,0.1,0.1,0.2,0.2,0.3c0.4,0.6,0.9,1.2,1.4,1.7
	c0.1,0.1,0.2,0.2,0.4,0.3c0.1,0.1,0.2,0.3,0.1,0.4c0,0,0,0,0,0C385.8,104.6,385.6,104.6,385.4,104.5z M411.8,76.2
	c-0.2,0.1-0.4,0-0.4-0.2c-0.4-0.9-0.9-1.8-1.5-2.6c-0.1-0.1-0.1-0.3,0.1-0.4c0.2-0.1,0.4,0,0.5,0.1c0.6,0.9,1.2,1.8,1.6,2.7
	c0.1,0.1,0,0.2-0.1,0.3C411.9,76.1,411.8,76.2,411.8,76.2z M389.8,93.6c-0.2,0-0.4,0-0.6,0.1c-0.8,0.1-1.6,0.4-2.4,0.7
	c-0.2,0.1-0.4,0-0.5-0.1c-0.1-0.1,0-0.3,0.1-0.4c0.8-0.4,1.7-0.7,2.6-0.8c0.2,0,0.5-0.1,0.7-0.1c0.2,0,0.3,0.1,0.4,0.3
	c0,0.1,0,0.2-0.1,0.2C390,93.5,389.9,93.6,389.8,93.6z M383,99.3c-0.2,0-0.3-0.2-0.3-0.3c0.1-1,0.5-2.1,1.2-3
	c0.1-0.1,0.3-0.2,0.5-0.1c0.2,0.1,0.2,0.3,0.1,0.4c-0.6,0.8-1,1.7-1.1,2.7c0,0.1,0,0.1-0.1,0.2C383.2,99.2,383.1,99.3,383,99.3z
	 M408.4,71c-0.1,0.1-0.4,0.1-0.5,0c-0.7-0.7-1.4-1.5-2.2-2.2c-0.1-0.1-0.1-0.3,0-0.4c0.1-0.1,0.3-0.1,0.5,0c0.8,0.8,1.6,1.5,2.3,2.3
	C408.5,70.7,408.5,70.8,408.4,71C408.4,71,408.4,71,408.4,71z M403.2,66.7c-0.8-0.6-1.7-1.3-2.6-1.9c-0.1-0.1-0.2-0.3-0.1-0.4
	c0.1-0.1,0.3-0.2,0.5-0.1c0.9,0.6,1.8,1.3,2.6,1.9c0.1,0.1,0.2,0.3,0,0.4c0,0,0,0,0,0C403.6,66.8,403.4,66.8,403.2,66.7z M397.9,63
	c-0.9-0.6-1.8-1.1-2.8-1.7c-0.2-0.1-0.2-0.3-0.1-0.4c0.1-0.1,0.3-0.2,0.5-0.1c1,0.6,1.9,1.1,2.8,1.7c0.2,0.1,0.2,0.3,0.1,0.4
	c0,0,0,0,0,0C398.3,63.1,398.1,63.1,397.9,63z M392.3,59.8c-0.9-0.5-1.9-1-2.9-1.5c-0.2-0.1-0.2-0.3-0.1-0.4
	c0.1-0.1,0.3-0.2,0.5-0.1c1,0.5,2,1,2.9,1.5c0.2,0.1,0.2,0.3,0.1,0.4c0,0,0,0,0,0.1C392.6,59.8,392.5,59.9,392.3,59.8z M386.5,56.9
	c-1-0.5-2-0.9-3-1.3c-0.2-0.1-0.2-0.3-0.2-0.4c0.1-0.2,0.3-0.2,0.4-0.1c1,0.4,2,0.9,3,1.3c0.2,0.1,0.2,0.3,0.1,0.4c0,0,0,0-0.1,0.1
	C386.8,56.9,386.6,57,386.5,56.9z M380.5,54.3c-1-0.4-2-0.8-3.1-1.2c-0.2-0.1-0.3-0.2-0.2-0.4c0.1-0.2,0.3-0.2,0.4-0.2
	c1,0.4,2,0.8,3.1,1.2c0.2,0.1,0.2,0.2,0.2,0.4c0,0,0,0.1-0.1,0.1C380.8,54.3,380.6,54.3,380.5,54.3z M374.3,52
	c-1.1-0.4-2.2-0.7-3.1-1c-0.2-0.1-0.3-0.2-0.2-0.4c0.1-0.2,0.2-0.2,0.4-0.2c0.9,0.3,2,0.6,3.2,1c0.2,0.1,0.3,0.2,0.2,0.4
	c0,0,0,0.1-0.1,0.1C374.6,52,374.5,52,374.3,52z"/>
<g>
	<linearGradient id="SVGID_1_" gradientUnits="userSpaceOnUse" x1="351.3227" y1="46.3891" x2="366.2784" y2="65.2157">
		<stop  offset="0" style="stop-color:#8F89E0"/>
		<stop  offset="1" style="stop-color:#5B24B7"/>
	</linearGradient>
	<polygon class="st5" points="333.2,36.2 348.4,53.3 355.2,50 361.7,46.9 	"/>
	<linearGradient id="SVGID_2_" gradientUnits="userSpaceOnUse" x1="359.5433" y1="43.1683" x2="382.2408" y2="63.3585">
		<stop  offset="0" style="stop-color:#8F89E0"/>
		<stop  offset="1" style="stop-color:#5B24B7"/>
	</linearGradient>
	<polygon class="st6" points="333.2,36.2 367.2,44.7 378,43.1 	"/>
	<linearGradient id="SVGID_3_" gradientUnits="userSpaceOnUse" x1="349.1534" y1="57.2878" x2="359.5476" y2="52.9632">
		<stop  offset="0" style="stop-color:#8F89E0"/>
		<stop  offset="1" style="stop-color:#5B24B7"/>
	</linearGradient>
	<polygon class="st7" points="355.2,50 364.4,56.1 361.7,46.9 	"/>
	<linearGradient id="SVGID_4_" gradientUnits="userSpaceOnUse" x1="364.0907" y1="33.5229" x2="350.6954" y2="44.5912">
		<stop  offset="0" style="stop-color:#8F89E0"/>
		<stop  offset="1" style="stop-color:#5B24B7"/>
	</linearGradient>
	<polygon class="st8" points="333.2,36.2 361.7,46.9 364.4,56.1 367.2,44.7 	"/>
</g>
<linearGradient id="SVGID_5_" gradientUnits="userSpaceOnUse" x1="-3446.8054" y1="0.8165" x2="-3448.2722" y2="47.0196" gradientTransform="matrix(-1 0 0 1 -3331.1858 0)">
	<stop  offset="0" style="stop-color:#F8F6FF"/>
	<stop  offset="1" style="stop-color:#DCD8FF"/>
</linearGradient>
<path class="st9" d="M109,0c10.1,0,11.6,14.9,23.5,10.3c11.8-4.7,18.3,4.7,18.3,4.7H81.4c0,0,1.5-5.6,12.5-7.5S98.8,0,109,0z"/>
<path class="st10" d="M296.8,28.1c-7.1,0.8-6.2-3.8-17.3-7.1c-11.1-3.3-12.9,7.9-20.4,4.7c-7.5-3.3-11.7,6.3-11.7,6.3h61.2
	C308.6,31.9,303.9,27.3,296.8,28.1z"/>
<g>
	<linearGradient id="SVGID_6_" gradientUnits="userSpaceOnUse" x1="264.7911" y1="244.0197" x2="619.2908" y2="552.6196">
		<stop  offset="0" style="stop-color:#8F89E0"/>
		<stop  offset="1" style="stop-color:#5B24B7"/>
	</linearGradient>
	<rect x="78.3" y="103.2" class="st11" width="270.8" height="192.8"/>
	<rect x="97.9" y="139.5" class="st10" width="231.7" height="139.6"/>
	<g>
		<path class="st12" d="M107.7,183.1V160c0-0.4,0.4-0.8,0.8-0.8h28.8c0.4,0,0.8,0.4,0.8,0.8v23.2c0,0.4-0.4,0.8-0.8,0.8h-28.8
			C108.1,183.9,107.7,183.6,107.7,183.1z"/>
		<path class="st12" d="M152,183.1V160c0-0.4,0.4-0.8,0.8-0.8h28.8c0.4,0,0.8,0.4,0.8,0.8v23.2c0,0.4-0.4,0.8-0.8,0.8h-28.8
			C152.3,183.9,152,183.6,152,183.1z"/>
		<path class="st12" d="M196.3,183.1V160c0-0.4,0.4-0.8,0.8-0.8h28.8c0.4,0,0.8,0.4,0.8,0.8v23.2c0,0.4-0.4,0.8-0.8,0.8h-28.8
			C196.6,183.9,196.3,183.6,196.3,183.1z"/>
		<path class="st12" d="M240.6,183.1V160c0-0.4,0.4-0.8,0.8-0.8h28.8c0.4,0,0.8,0.4,0.8,0.8v23.2c0,0.4-0.4,0.8-0.8,0.8h-28.8
			C240.9,183.9,240.6,183.6,240.6,183.1z"/>
		<path class="st12" d="M284.8,183.1V160c0-0.4,0.4-0.8,0.8-0.8h28.8c0.4,0,0.8,0.4,0.8,0.8v23.2c0,0.4-0.4,0.8-0.8,0.8h-28.8
			C285.2,183.9,284.8,183.6,284.8,183.1z"/>
		<path class="st12" d="M107.7,220.9v-23.2c0-0.4,0.4-0.8,0.8-0.8h28.8c0.4,0,0.8,0.4,0.8,0.8v23.2c0,0.4-0.4,0.8-0.8,0.8h-28.8
			C108.1,221.6,107.7,221.3,107.7,220.9z"/>
		<path class="st12" d="M152,220.9v-23.2c0-0.4,0.4-0.8,0.8-0.8h28.8c0.4,0,0.8,0.4,0.8,0.8v23.2c0,0.4-0.4,0.8-0.8,0.8h-28.8
			C152.3,221.6,152,221.3,152,220.9z"/>
		<path class="st12" d="M196.3,220.9v-23.2c0-0.4,0.4-0.8,0.8-0.8h28.8c0.4,0,0.8,0.4,0.8,0.8v23.2c0,0.4-0.4,0.8-0.8,0.8h-28.8
			C196.6,221.6,196.3,221.3,196.3,220.9z"/>
		<path class="st12" d="M240.6,220.9v-23.2c0-0.4,0.4-0.8,0.8-0.8h28.8c0.4,0,0.8,0.4,0.8,0.8v23.2c0,0.4-0.4,0.8-0.8,0.8h-28.8
			C240.9,221.6,240.6,221.3,240.6,220.9z"/>
		<path class="st12" d="M284.8,220.9v-23.2c0-0.4,0.4-0.8,0.8-0.8h28.8c0.4,0,0.8,0.4,0.8,0.8v23.2c0,0.4-0.4,0.8-0.8,0.8h-28.8
			C285.2,221.6,284.8,221.3,284.8,220.9z"/>
		<path class="st12" d="M107.7,258.2v-23.2c0-0.4,0.4-0.8,0.8-0.8h28.8c0.4,0,0.8,0.4,0.8,0.8v23.2c0,0.4-0.4,0.8-0.8,0.8h-28.8
			C108.1,259,107.7,258.7,107.7,258.2z"/>
		<path class="st12" d="M152,258.2v-23.2c0-0.4,0.4-0.8,0.8-0.8h28.8c0.4,0,0.8,0.4,0.8,0.8v23.2c0,0.4-0.4,0.8-0.8,0.8h-28.8
			C152.3,259,152,258.7,152,258.2z"/>
		<path class="st12" d="M196.3,258.2v-23.2c0-0.4,0.4-0.8,0.8-0.8h28.8c0.4,0,0.8,0.4,0.8,0.8v23.2c0,0.4-0.4,0.8-0.8,0.8h-28.8
			C196.6,259,196.3,258.7,196.3,258.2z"/>
		<path class="st12" d="M240.6,258.2v-23.2c0-0.4,0.4-0.8,0.8-0.8h28.8c0.4,0,0.8,0.4,0.8,0.8v23.2c0,0.4-0.4,0.8-0.8,0.8h-28.8
			C240.9,259,240.6,258.7,240.6,258.2z"/>
		<path class="st12" d="M284.8,258.2v-23.2c0-0.4,0.4-0.8,0.8-0.8h28.8c0.4,0,0.8,0.4,0.8,0.8v23.2c0,0.4-0.4,0.8-0.8,0.8h-28.8
			C285.2,259,284.8,258.7,284.8,258.2z"/>
	</g>
	<g>
		<path class="st12" d="M105.2,118.7h-5.3c-1.7,0-3-1.4-3-3V92.8c0-1.7,1.4-3,3-3h5.3c1.7,0,3,1.4,3,3v22.8
			C108.2,117.3,106.8,118.7,105.2,118.7z"/>
		<path class="st12" d="M149.5,118.7h-5.3c-1.7,0-3-1.4-3-3V92.8c0-1.7,1.4-3,3-3h5.3c1.7,0,3,1.4,3,3v22.8
			C152.5,117.3,151.1,118.7,149.5,118.7z"/>
		<path class="st12" d="M193.8,118.7h-5.3c-1.7,0-3-1.4-3-3V92.8c0-1.7,1.4-3,3-3h5.3c1.7,0,3,1.4,3,3v22.8
			C196.8,117.3,195.4,118.7,193.8,118.7z"/>
		<path class="st12" d="M238,118.7h-5.3c-1.7,0-3-1.4-3-3V92.8c0-1.7,1.4-3,3-3h5.3c1.7,0,3,1.4,3,3v22.8
			C241,117.3,239.7,118.7,238,118.7z"/>
		<path class="st12" d="M282.3,118.7H277c-1.7,0-3-1.4-3-3V92.8c0-1.7,1.4-3,3-3h5.3c1.7,0,3,1.4,3,3v22.8
			C285.3,117.3,284,118.7,282.3,118.7z"/>
		<path class="st12" d="M326.6,118.7h-5.3c-1.7,0-3-1.4-3-3V92.8c0-1.7,1.4-3,3-3h5.3c1.7,0,3,1.4,3,3v22.8
			C329.6,117.3,328.3,118.7,326.6,118.7z"/>
	</g>
</g>
<g>
	<path class="st13" d="M89.3,207.7c0,0-0.1,0-0.1,0c-0.1-0.1-0.1-0.2,0-0.2c3.9-4.6,3.3-10.3,1.5-13.9c-1.5-2.9-3.5-3.7-3.5-3.7
		c-0.1,0-0.1-0.1-0.1-0.2c0-0.1,0.1-0.1,0.2-0.1c0.1,0,2.2,0.8,3.7,3.8c1.8,3.6,2.5,9.6-1.5,14.2C89.4,207.6,89.4,207.7,89.3,207.7z
		"/>
	<path class="st13" d="M70.2,212.3c-0.1,0-0.1,0-0.2-0.1c-1-2.6,0.8-4.5,2.3-6.1c1.1-1.2,2.2-2.4,2.1-3.7c-0.2-3.2,0.8-9.4,4.4-12.2
		c2.1-1.7,4.9-2,8.1-0.9c0.1,0,0.1,0.1,0.1,0.2c0,0.1-0.1,0.1-0.2,0.1c-3.1-1-5.7-0.7-7.8,0.9c-3.5,2.7-4.5,8.8-4.3,11.9
		c0.1,1.5-1,2.7-2.2,4c-1.5,1.6-3.1,3.4-2.2,5.8C70.4,212.2,70.3,212.3,70.2,212.3C70.2,212.3,70.2,212.3,70.2,212.3z"/>
	<path class="st13" d="M85.6,211.4c3.7-2.9,8.2-8.5,4.7-18.2c-3.2-9-16.9-3.6-14.8,7.8c0.7,3.5-4,5.9-4.8,8.5
		C67.1,221.6,82.7,213.7,85.6,211.4z"/>
	<linearGradient id="SVGID_7_" gradientUnits="userSpaceOnUse" x1="64.8292" y1="303.1348" x2="70.1057" y2="304.7836">
		<stop  offset="0" style="stop-color:#6060A4"/>
		<stop  offset="0.9966" style="stop-color:#200455"/>
	</linearGradient>
	<path class="st14" d="M72.5,303.7c0,0.7,0,3.3-1.7,4.1c-1.7,0.7-4.4,0.2-4.6-1c0,0,0-0.1,0-0.1c0-1.2,2-5.4,2-5.4
		c1.2-0.8,3.4-0.1,3.7,0.2c0.2,0.2,0.5,1.2,0.6,2C72.5,303.6,72.5,303.7,72.5,303.7z"/>
	<linearGradient id="SVGID_8_" gradientUnits="userSpaceOnUse" x1="104.0837" y1="301.156" x2="100.0853" y2="305.1958">
		<stop  offset="0" style="stop-color:#6060A4"/>
		<stop  offset="0.9966" style="stop-color:#200455"/>
	</linearGradient>
	<path class="st15" d="M102.3,306.2c-4.3-1.1-6.7-0.5-7-1.9c0,0,0,0,0-0.1c-0.3-1.4,0.3-3.2,0.3-3.2c1.9-0.5,6.7,0.6,6.7,0.6
		s5.6,2.2,5.8,3.3c0,0,0,0.1,0,0.1C108.1,306.5,106.5,307.3,102.3,306.2z"/>
	<linearGradient id="SVGID_9_" gradientUnits="userSpaceOnUse" x1="69.8801" y1="302.3412" x2="71.364" y2="294.2205">
		<stop  offset="0" style="stop-color:#FFB39C"/>
		<stop  offset="1" style="stop-color:#FF825C"/>
	</linearGradient>
	<path class="st16" d="M68.9,296.6c0,0-0.5,4.9-0.9,6.4c0,0,1.6-0.7,3.6,0.7c0,0,0.5-0.9,0.4-2.2c-0.1-1.4,0.5-4.8,0.5-4.8
		S70,295.9,68.9,296.6z"/>
	<linearGradient id="SVGID_10_" gradientUnits="userSpaceOnUse" x1="100.2868" y1="298.7457" x2="96.0454" y2="301.8363">
		<stop  offset="0" style="stop-color:#FFB39C"/>
		<stop  offset="1" style="stop-color:#FF825C"/>
	</linearGradient>
	<path class="st17" d="M95.7,297.2c0,0,0.4,2.3-0.1,3.9c0,0,4.5,2.1,5.1,2.2c0,0,0.7-1.1,1.6-1.6c0,0-2-0.9-2.6-1.7
		c-0.5-0.7-0.5-2.9-0.5-2.9S97.1,296.3,95.7,297.2z"/>
	<linearGradient id="SVGID_11_" gradientUnits="userSpaceOnUse" x1="92.1854" y1="219.8857" x2="81.7643" y2="227.4794">
		<stop  offset="0" style="stop-color:#FFB39C"/>
		<stop  offset="1" style="stop-color:#FF825C"/>
	</linearGradient>
	<path class="st18" d="M87.3,234.6H87c0-0.8,0.4-2.9,0.8-5.3c0.6-3.2,1.2-6.8,1.2-8.5c0-2.9-2.3-7.9-2.3-8l0.3-0.1
		c0.1,0.2,2.4,5.1,2.4,8.1c0,1.7-0.6,5.3-1.2,8.6C87.7,231.8,87.3,233.9,87.3,234.6z"/>
	<linearGradient id="SVGID_12_" gradientUnits="userSpaceOnUse" x1="103.955" y1="203.8561" x2="104.0408" y2="232.6094">
		<stop  offset="0" style="stop-color:#FFB39C"/>
		<stop  offset="1" style="stop-color:#FF825C"/>
	</linearGradient>
	<path class="st19" d="M101.5,207.9c0,0,1.2,7.8,0.9,13c0,0-2.1,7.8,3.6,7.9c0,0,1.3-5.4,0-13.9c-0.9-5.9-1.6-7-1.6-7
		S102.8,206.8,101.5,207.9z"/>
	<linearGradient id="SVGID_13_" gradientUnits="userSpaceOnUse" x1="97.8895" y1="205.1639" x2="112.716" y2="198.196">
		<stop  offset="0" style="stop-color:#FFB39C"/>
		<stop  offset="1" style="stop-color:#FF825C"/>
	</linearGradient>
	<path class="st20" d="M101.5,207.9c0,0-2.2-3.1-2.5-3.8s0.5-3.5,0.4-4.6c-0.1-1.1,0.2-1.1,0.9,0c0.6,1.1,0.5,1.7,0.5,1.7
		s3.3-2.4,4-1.7c0.5,0.5,0,1.1,0,1.1s1.1-0.4,0.9,0.6c0,0,0.9,0.5,0.4,1.4c0,0,1,0.1,0.1,1.2c-0.9,1.1-1.7,4.1-1.7,4.1
		S102.8,208.5,101.5,207.9z"/>
	<linearGradient id="SVGID_14_" gradientUnits="userSpaceOnUse" x1="99.1328" y1="202.301" x2="106.7915" y2="202.301">
		<stop  offset="9.999999e-08" style="stop-color:#FF476A"/>
		<stop  offset="1" style="stop-color:#DE1A40"/>
	</linearGradient>
	<polygon class="st21" points="102.3,197.7 106.8,205.5 104.9,206.9 99.1,199.5 	"/>
	<linearGradient id="SVGID_15_" gradientUnits="userSpaceOnUse" x1="93.8285" y1="190.3374" x2="114.706" y2="190.3374">
		<stop  offset="9.999999e-08" style="stop-color:#FF476A"/>
		<stop  offset="1" style="stop-color:#DE1A40"/>
	</linearGradient>
	<path class="st22" d="M114.7,195.7c0,0-8.8-0.1-15.8,4.4c-0.1,0-0.1,0.1-0.2,0.1c-1.4,0.9-3.2,0.6-4.3-0.7c0,0-0.1-0.1-0.1-0.1
		c-1.1-1.4-0.7-3.4,0.7-4.5c0.2-0.1,0.3-0.2,0.5-0.3c1.6-1.2,3.7-2.8,4.8-4.2c2.1-2.6,4.3-8.3,4.7-10.4
		C105.2,179.9,113.2,186.9,114.7,195.7z"/>
	<path class="st23" d="M95.6,194.6c-0.7,0.5-1.3,0.9-1.7,1.2c-0.6,0.4-1,1.1-1.2,1.8c0,0.2,0,0.3,0,0.5c0,1,1.7,3.1,2.3,3.3
		c0,0,0.1,0,0.1,0c0.8,0.3,1.7,0.1,2.4-0.5c0.4-0.3,0.9-0.7,1.4-1C96.3,198.3,95.6,194.6,95.6,194.6z"/>
	<linearGradient id="SVGID_16_" gradientUnits="userSpaceOnUse" x1="99.4844" y1="202.8707" x2="120.1055" y2="210.9708">
		<stop  offset="0" style="stop-color:#FFB39C"/>
		<stop  offset="1" style="stop-color:#FF825C"/>
	</linearGradient>
	<path class="st24" d="M101.5,207.9c0,0-2.2-3.1-2.5-3.8s0.5-3.5,0.4-4.6c-0.1-1.1,0.2-1.1,0.9,0c0.6,1.1,0.5,1.7,0.5,1.7l-0.3,1.8
		C100.4,203,102.8,208.5,101.5,207.9z"/>
	<path class="st25" d="M102,204.8C101.9,204.8,101.9,204.8,102,204.8c-0.3-0.5-0.9-1.5-1.5-1.6l-0.1,0l0-0.1c0,0,0.1-0.4,0.2-1.6
		c0-0.1,0.1-0.1,0.1-0.1c0.1,0,0.1,0.1,0.1,0.1c-0.1,0.9-0.2,1.3-0.2,1.5c0.7,0.2,1.4,1.6,1.4,1.6
		C102.1,204.7,102.1,204.8,102,204.8C102,204.8,102,204.8,102,204.8z"/>
	<path class="st26" d="M105.4,201.3c0,0-1.6,1.7-2.2,1.4c-0.6-0.4,1.5-2.1,1.5-2.1c-1.2,0.9-2.6,1.6-2.5,1c0.1-0.6,1.5-2,1.5-2"/>
	<path class="st26" d="M104.8,202c0,0-1,1-0.6,1.5c0.4,0.5,1.7-0.9,1.7-0.9s-1.4,1-0.9,1.5c0.5,0.5,1.1-0.7,1.1-0.7"/>
	<linearGradient id="SVGID_17_" gradientUnits="userSpaceOnUse" x1="115.6102" y1="184.559" x2="105.5435" y2="189.6489">
		<stop  offset="0" style="stop-color:#F5E9FF"/>
		<stop  offset="1" style="stop-color:#B3AAFF"/>
	</linearGradient>
	<path class="st27" d="M117,183.5c2.9,5.1,3.2,10.4,0.6,11.9c-2.6,1.5-7.1-1.4-10.1-6.5c-2.9-5.1-3.2-10.4-0.6-11.9
		C109.6,175.5,114.1,178.4,117,183.5z"/>
	<linearGradient id="SVGID_18_" gradientUnits="userSpaceOnUse" x1="107.2243" y1="188.814" x2="112.2605" y2="188.814">
		<stop  offset="9.999999e-08" style="stop-color:#FF476A"/>
		<stop  offset="1" style="stop-color:#DE1A40"/>
	</linearGradient>
	<path class="st28" d="M107.2,187.4c0,0,4.1-1.8,4.9-0.4c0.9,1.7-2.5,4.1-2.5,4.1"/>
	<linearGradient id="SVGID_19_" gradientUnits="userSpaceOnUse" x1="57.9182" y1="266.9278" x2="90.6215" y2="262.2673">
		<stop  offset="0" style="stop-color:#6060A4"/>
		<stop  offset="0.9966" style="stop-color:#200455"/>
	</linearGradient>
	<path class="st29" d="M78,232.1c0,0-3.3,3.3-4.8,11c-1.5,7.7-1,14.7-1.6,17.6c-0.6,2.8-1.9,9.3-2.5,16.6
		c-0.6,7.3-0.7,19.3-0.7,19.3s2,0.7,4.4,0.2c0,0,4-15.6,4.7-20.6c0.7-4.9,5.2-22,6.7-25.4c0,0,2.7-13.9,3-16.2
		C87.1,234.6,82.4,231.3,78,232.1z"/>
	<linearGradient id="SVGID_20_" gradientUnits="userSpaceOnUse" x1="108.7874" y1="267.6053" x2="83.2406" y2="263.7913">
		<stop  offset="0" style="stop-color:#6060A4"/>
		<stop  offset="0.9966" style="stop-color:#200455"/>
	</linearGradient>
	<path class="st30" d="M91.6,233.4c0,0,4.3,19.9,5.9,27.3c1.6,7.4,1.5,7.9,2,16.7c0.5,8.8,0.2,19.5,0.2,19.5s-1.3,1-4.6,0.3
		c0,0-3.5-13.8-3.5-17.9c0-4.1,0-8.4-1.5-12.7c-1.5-4.3-4.5-13.2-5.9-15.8l3-16.2C87.1,234.6,89.1,232.8,91.6,233.4z"/>
	<linearGradient id="SVGID_21_" gradientUnits="userSpaceOnUse" x1="69.9611" y1="230.7354" x2="63.6232" y2="232.4049">
		<stop  offset="0" style="stop-color:#FFB39C"/>
		<stop  offset="1" style="stop-color:#FF825C"/>
	</linearGradient>
	<path class="st31" d="M71.5,236.6c0,0-2.7-2.6-5.3-4.5c-2.5-1.8-4.1-3.8-4.1-3.8s0.8-3.5,4.8-2.2c0,0,3.5,6.1,6.7,8.5
		C73.6,234.6,73.4,236.2,71.5,236.6z"/>
	<linearGradient id="SVGID_22_" gradientUnits="userSpaceOnUse" x1="76.8051" y1="237.842" x2="75.3212" y2="243.036">
		<stop  offset="0" style="stop-color:#FFB39C"/>
		<stop  offset="1" style="stop-color:#FF825C"/>
	</linearGradient>
	<path class="st32" d="M71.5,236.6c0,0,1,1.1,1.7,1.6c0.7,0.5,1.7,1.9,2,3.6c0.3,1.7,0.8,1.1,0.9,0c0-0.5-0.2-2.7-0.9-3.5
		c0,0,2,5.1,2.7,5.3c0.7,0.2-0.5-3.6-0.5-3.6s1,3.7,1.6,3.6c0.6-0.1-0.1-3.2-0.5-4.1c0,0,2.2,2.4,2.6,2.2c1.1-0.5-3.3-5.4-3.7-5.6
		c-0.4-0.1-3.8-1.6-3.8-1.6S72,235.2,71.5,236.6z"/>
	<linearGradient id="SVGID_23_" gradientUnits="userSpaceOnUse" x1="102.3484" y1="213.9036" x2="92.7029" y2="227.0976">
		<stop  offset="2.600000e-07" style="stop-color:#FFF3A4"/>
		<stop  offset="1" style="stop-color:#FFCE5C"/>
	</linearGradient>
	<path class="st33" d="M105.9,228.8c0,0-0.3,1.5-1.7,1.2c-0.6-0.1-1.4-0.7-2.3-1.7c-2.5-2.5-5.8-7-6.5-8c0,0-5.9-8.4-3.3-12.5
		c0,0,2.5,0.1,4.9,4.2c2.4,4,4.6,7.8,5.3,8.7c0,0,0,0,0,0C102.3,220.9,102.2,228.1,105.9,228.8z"/>
	<linearGradient id="SVGID_24_" gradientUnits="userSpaceOnUse" x1="96.4314" y1="210.1904" x2="80.9114" y2="222.5568">
		<stop  offset="2.600000e-07" style="stop-color:#FFF3A4"/>
		<stop  offset="1" style="stop-color:#FFCE5C"/>
	</linearGradient>
	<path class="st34" d="M86.9,207c0,0,3.3,0.8,5.1,0.9c0,0-0.4,3.7,0,4c0.4,0.2,2.5,2.7,3.1,5.8c0.6,3.1-1.5,5.9-1.5,5.9
		s-1.1,6.9-2.1,9.8c0,0-4.9,3.6-13.6-1.2c0,0,0.5-7.8,0-10.1c-0.5-2.3-2-5.8-2-5.8s-0.9-7.4,0-9c0,0,2.6,0.3,4.6-0.8L86.9,207z"/>
	<linearGradient id="SVGID_25_" gradientUnits="userSpaceOnUse" x1="83.704" y1="208.6894" x2="85.4507" y2="203.3597">
		<stop  offset="0" style="stop-color:#FFB39C"/>
		<stop  offset="1" style="stop-color:#FF825C"/>
	</linearGradient>
	<path class="st35" d="M86.8,203.3c-1.3,4.4,4.2,9.5,0,9.5c-2.6,0-5-3.4-6.2-6.5c0,0,1.5-1.1,0.4-6.8
		C80.9,199.5,83.4,200,86.8,203.3z"/>
	
		<linearGradient id="SVGID_26_" gradientUnits="userSpaceOnUse" x1="55.9382" y1="126.7493" x2="48.1226" y2="118.3894" gradientTransform="matrix(0.9958 -9.110000e-02 9.110000e-02 0.9958 22.2692 79.5964)">
		<stop  offset="0" style="stop-color:#FFB39C"/>
		<stop  offset="1" style="stop-color:#FF825C"/>
	</linearGradient>
	<path class="st36" d="M81.2,200.2c0,0,3.2,3.6,6.1,3.4c3-0.1,3.4-6.3,2.5-9.6c-0.5-1.9-4.8-4.4-7.6,1c-0.6,1.1-0.6,3.2-1.3,2.3
		c-0.5-0.7-1.5-1.3-1.6,0.2C79.3,198.6,80.1,200.4,81.2,200.2z"/>
	<path class="st37" d="M83.6,223.7c-1.6,0-2.9-0.5-3-0.5c-0.1,0-0.1-0.1-0.1-0.2c0-0.1,0.1-0.1,0.2-0.1c0,0,1.9,0.7,3.7,0.4
		c0.1,0,0.2,0.1,0.2,0.1c0,0.1-0.1,0.2-0.1,0.2C84.2,223.7,83.9,223.7,83.6,223.7z"/>
	<path class="st38" d="M92.1,224c-0.3,0-0.5,0-0.5,0c-0.1,0-0.2-0.1-0.2-0.2c0-0.1,0.1-0.2,0.2-0.2c0,0,1.3,0.1,1.9-0.2
		c0.1,0,0.2,0,0.2,0.1c0,0.1,0,0.2-0.1,0.2C93.2,224,92.6,224,92.1,224z"/>
	<linearGradient id="SVGID_27_" gradientUnits="userSpaceOnUse" x1="59.4258" y1="210.9788" x2="73.9775" y2="221.1584">
		<stop  offset="2.600000e-07" style="stop-color:#FFF3A4"/>
		<stop  offset="1" style="stop-color:#FFCE5C"/>
	</linearGradient>
	<path class="st39" d="M76,216.2c-3.1,2.3-9,8.5-9.5,9c0,0,0,0,0,0l0.4,0.9c-3.8-0.7-4.8,2.2-4.8,2.2s-1.5-1.9-1.5-2.2
		c0,0,0.1-0.2,0.2-0.4c1-1.7,5.9-9.1,9.3-13.6c3.8-5.1,5.8-4.9,5.8-4.9C77.9,208.4,76,216.2,76,216.2z"/>
	<path class="st40" d="M105.9,228.8c0,0-0.3,1.5-1.7,1.2c-0.6-0.1-1.4-0.7-2.3-1.7c0-2.8,0.3-6.2,0.4-7.5c0,0,0,0,0,0
		C102.3,220.9,102.2,228.1,105.9,228.8z"/>
	<path class="st40" d="M66.9,226.1c-3.8-0.7-4.8,2.2-4.8,2.2s-1.5-1.9-1.5-2.2c1.5-1.4,5.8-0.9,5.8-0.9L66.9,226.1z"/>
	<path class="st25" d="M77.8,241.3c-0.1,0-0.1,0-0.1-0.1c-0.2-1-0.9-2.4-0.9-2.4c0-0.1,0-0.1,0.1-0.1c0.1,0,0.1,0,0.1,0.1
		c0,0.1,0.7,1.4,0.9,2.4C77.9,241.2,77.9,241.3,77.8,241.3C77.8,241.3,77.8,241.3,77.8,241.3z"/>
	<path class="st25" d="M78.7,239.7C78.6,239.7,78.6,239.7,78.7,239.7l-1-1.3c0,0,0-0.1,0-0.2c0,0,0.1,0,0.2,0l0.9,1.2
		C78.8,239.6,78.8,239.7,78.7,239.7C78.7,239.7,78.7,239.7,78.7,239.7z"/>
	<path class="st25" d="M75.8,239.9c0,0-0.1,0-0.1-0.1l-0.2-0.6c0-0.1,0-0.1,0.1-0.1c0.1,0,0.1,0,0.1,0.1l0.2,0.6
		C76,239.8,75.9,239.9,75.8,239.9C75.9,239.9,75.9,239.9,75.8,239.9z"/>
	<path class="st41" d="M71,296.4c-1.5,0-2.5-0.3-2.5-0.3c-0.1,0-0.1-0.1-0.1-0.2c0-0.1,0.1-0.1,0.2-0.1c0,0,1.8,0.5,4,0.2
		c0.1,0,0.2,0.1,0.2,0.1c0,0.1-0.1,0.2-0.1,0.2C72,296.3,71.5,296.4,71,296.4z"/>
	<path class="st41" d="M97.1,296.9c-1.1,0-2-0.2-2-0.2c-0.1,0-0.1-0.1-0.1-0.2c0-0.1,0.1-0.1,0.2-0.1c0,0,2.5,0.6,4.2-0.2
		c0.1,0,0.2,0,0.2,0.1c0,0.1,0,0.2-0.1,0.2C98.8,296.8,97.9,296.9,97.1,296.9z"/>
	<path class="st41" d="M72.5,303.7c0,0.7,0,3.3-1.7,4.1c-1.7,0.7-4.4,0.2-4.6-1c0.7,0.4,1.9,0.8,3.9,0.6c1.9-0.2,2.3-2.1,2.3-4
		C72.5,303.6,72.5,303.7,72.5,303.7z"/>
	<path class="st41" d="M102.3,306.2c-4.3-1.1-6.7-0.5-7-1.9c0,0,0,0,0-0.1c0.7,0.2,1.6,0.6,3.7,0.9c2.9,0.3,7.4,1.9,9.1,0.1
		C108.1,306.5,106.5,307.3,102.3,306.2z"/>
	<path class="st13" d="M81.6,197.9C81.6,197.9,81.5,197.9,81.6,197.9c-0.5-0.1-0.8-0.7-0.8-0.8c0-0.1,0-0.2,0.1-0.2
		c0.1,0,0.2,0,0.2,0.1c0.1,0.2,0.3,0.6,0.5,0.6c0.1,0,0.1,0,0.2-0.1c0.1-0.1,0.2-0.4,0.3-0.8c0.6-1.4,1.7-4.1,3.6-4.8
		c0.8-0.3,1.7-0.3,2.6,0.2c0.1,0,0.1,0.1,0.1,0.2c0,0.1-0.1,0.1-0.2,0.1c-0.8-0.4-1.6-0.4-2.4-0.2c-1.8,0.7-2.9,3.3-3.4,4.6
		c-0.2,0.4-0.3,0.7-0.4,0.8C81.9,197.8,81.7,197.9,81.6,197.9z"/>
</g>
<g>
	<path class="st13" d="M347.6,208.7C347.6,208.7,347.6,208.7,347.6,208.7c-0.2-0.1-0.2-0.2-0.2-0.2c2.4-5.1,2.7-9.3,0.9-12.2
		c-1.6-2.6-4.6-3.5-6-3.5c-0.1,0-0.2-0.1-0.2-0.2s0.1-0.2,0.2-0.2c1.5,0,4.6,1,6.3,3.7c1.3,2.1,2.2,5.9-0.9,12.5
		C347.7,208.7,347.7,208.7,347.6,208.7z"/>
	<linearGradient id="SVGID_28_" gradientUnits="userSpaceOnUse" x1="323.0277" y1="297.6133" x2="327.1406" y2="301.3863">
		<stop  offset="0" style="stop-color:#6060A4"/>
		<stop  offset="0.9966" style="stop-color:#200455"/>
	</linearGradient>
	<path class="st42" d="M322.9,301.1c0,0-1.2,0.1-1.7,0.1c-0.4,0-0.5,1.5,0.7,2.2c1.2,0.7,6.2,0.6,8.3-0.2l0.1,0.5l3-0.1
		c0,0,0.4-2.5,0-3.6C332.9,299.1,326,302.6,322.9,301.1z"/>
	<linearGradient id="SVGID_29_" gradientUnits="userSpaceOnUse" x1="344.6847" y1="303.9159" x2="353.0463" y2="303.9159">
		<stop  offset="0" style="stop-color:#6060A4"/>
		<stop  offset="0.9966" style="stop-color:#200455"/>
	</linearGradient>
	<path class="st43" d="M348.8,300.5c0,0-0.4,1.6-0.3,4.1c0.1,2.5,0.3,3,2,3.2c1.7,0.2,3.8-0.1,3.7-1.4c0-1.2-1.1-4.7-1.8-6.1
		C352.5,300.4,350.9,299.4,348.8,300.5z"/>
	<linearGradient id="SVGID_30_" gradientUnits="userSpaceOnUse" x1="322.8371" y1="297.3838" x2="334.3912" y2="297.3838">
		<stop  offset="0" style="stop-color:#FFB39C"/>
		<stop  offset="1" style="stop-color:#FF825C"/>
	</linearGradient>
	<path class="st44" d="M334.4,293.5c0,0-1.3,5.1-1.3,5.7s0.2,0.9,0.2,0.9s-3.4,2.2-7.4,2.2c-3.6-0.1-3-1.1-3-1.1s2.5-0.2,3.3-0.4
		c0.8-0.2,3.3-1.9,3.6-2.7c0.4-0.7,0.6-5.4,0.6-5.4S332.7,292.1,334.4,293.5z"/>
	
		<linearGradient id="SVGID_31_" gradientUnits="userSpaceOnUse" x1="312.5421" y1="44.6372" x2="316.9496" y2="44.6372" gradientTransform="matrix(0.9992 -4.100000e-02 4.100000e-02 0.9992 34.6459 268.1732)">
		<stop  offset="0" style="stop-color:#FFB39C"/>
		<stop  offset="1" style="stop-color:#FF825C"/>
	</linearGradient>
	<path class="st45" d="M348.8,295.2c0,0,0.1,4,0.1,5.1c-0.1,1.1,0.1,4.6,1.3,4.8c1.2,0.2,3.3,0.1,3.2-0.9c0-1-0.9-3.2-0.9-4.2
		c0-1,0.1-5.2,0.1-5.2S350.3,294.2,348.8,295.2z"/>
	<linearGradient id="SVGID_32_" gradientUnits="userSpaceOnUse" x1="324.1806" y1="264.0976" x2="341.6856" y2="268.762">
		<stop  offset="0" style="stop-color:#6060A4"/>
		<stop  offset="0.9966" style="stop-color:#200455"/>
	</linearGradient>
	<path class="st46" d="M339.7,242.6c0,0-5.3,15.9-7.4,22.7c-2.2,6.8-1.9,21-2.7,27.5c0,0,4,1,5.6,1c0,0,2.7-12.5,3.8-18
		c1.1-5.6,1.6-7,4.4-11.3c2.8-4.2,5.1-9.2,5.1-9.2l-0.8-11.4C347.5,243.8,345,241.2,339.7,242.6z"/>
	<linearGradient id="SVGID_33_" gradientUnits="userSpaceOnUse" x1="373.1325" y1="262.2359" x2="345.0935" y2="268.8777">
		<stop  offset="0" style="stop-color:#6060A4"/>
		<stop  offset="0.9966" style="stop-color:#200455"/>
	</linearGradient>
	<path class="st47" d="M354.5,239.6c0,0,3.2,5.9,3.3,10.7c0.1,4.8-3.2,15.8-3.6,22.7c-0.3,6.9-0.4,17.7-0.9,21.6
		c0,0-2.6,0.8-5.3,0.6c0,0-0.8-14-1.2-17.5c-0.4-3.5-0.5-12-0.6-15.5c-0.1-3.5-0.9-17.7-1.9-19C344.2,243.2,348.6,239,354.5,239.6z"
		/>
	<linearGradient id="SVGID_34_" gradientUnits="userSpaceOnUse" x1="329.4956" y1="227.7675" x2="336.6051" y2="235.3309">
		<stop  offset="0" style="stop-color:#FFB39C"/>
		<stop  offset="1" style="stop-color:#FF825C"/>
	</linearGradient>
	<path class="st48" d="M332.9,226.6c0,0-0.6,4.6-0.8,5c0,0-3.1-0.8-4.4-1l-1.3,1.5c0,0,3.3,3.6,6.1,4.3s2.9-0.2,3.9-2.5
		c1-2.3,1.7-4.7,1.7-4.7S335.6,226.4,332.9,226.6z"/>
	<linearGradient id="SVGID_35_" gradientUnits="userSpaceOnUse" x1="331.8597" y1="217.849" x2="335.6866" y2="220.4965">
		<stop  offset="2.600000e-07" style="stop-color:#FFF3A4"/>
		<stop  offset="1" style="stop-color:#FFCE5C"/>
	</linearGradient>
	<path class="st49" d="M336.1,212.7c0,0-1.7,1.2-2.3,4.4c-0.4,2.3-0.9,9.6-0.9,9.6s2.1,1.1,5.1,1.2
		C337.9,227.9,339,214.4,336.1,212.7z"/>
	<linearGradient id="SVGID_36_" gradientUnits="userSpaceOnUse" x1="330.3553" y1="199.9294" x2="347.0664" y2="229.4114">
		<stop  offset="2.600000e-07" style="stop-color:#FFF3A4"/>
		<stop  offset="1" style="stop-color:#FFCE5C"/>
	</linearGradient>
	<path class="st50" d="M348.5,209.2c0,0,2.4,0.4,4.7,1.1c0,0-1.2,15-0.1,19.8c1.1,4.8,2.9,5.8,4.2,9.3c0,0-11.1,6.7-19.8,2.9
		c1.1-10.8-2.2-13.1-2.2-18.9c0-4.2,2.8-6.8,0.8-10.8C336.1,212.7,338.7,209.9,348.5,209.2z"/>
	<path class="st13" d="M349.1,203.9c0.9-5.9-1.1-7.8-2.4-9.1c-1.3-1.3-5.9-4.6-11.4-0.2c-5.4,4.4-0.2,11.2,0.2,16.4
		c0.3,3.7,0.6,10.8,2.4,10.9c1.8,0.1,4.7-6.6,4.7-8.8C342.6,211.1,347.9,212.4,349.1,203.9z"/>
	<linearGradient id="SVGID_37_" gradientUnits="userSpaceOnUse" x1="347.4404" y1="210.3606" x2="342.4619" y2="208.5223">
		<stop  offset="0" style="stop-color:#FFB39C"/>
		<stop  offset="1" style="stop-color:#FF825C"/>
	</linearGradient>
	<path class="st51" d="M345.8,202.8c0,0,0.9,6.3,2.8,6.4c0,0-1.2,6.7-6.1,6.3c0,0,0.9-3.9-0.9-7C341.5,208.5,343.1,202,345.8,202.8z
		"/>
	<linearGradient id="SVGID_38_" gradientUnits="userSpaceOnUse" x1="339.0414" y1="206.2363" x2="341.7583" y2="197.3237">
		<stop  offset="0" style="stop-color:#FFB39C"/>
		<stop  offset="1" style="stop-color:#FF825C"/>
	</linearGradient>
	<path class="st52" d="M345.1,204c0,0-1.5,5.6-4.5,5.8c-2.1,0.1-4.4-3.4-5.4-6.5c-1.1-3.1,0.1-4.1,0.8-4.1c0.7,0,2.4,0.7,4.4-1.2
		c0,0,1.5,3.9,3.1,4.2c1.1,0.2,0.5-2.3,1.7-2.3C346.8,199.8,346.7,203.4,345.1,204z"/>
	<linearGradient id="SVGID_39_" gradientUnits="userSpaceOnUse" x1="346.6153" y1="225.9727" x2="346.1537" y2="235.3902">
		<stop  offset="0" style="stop-color:#FFB39C"/>
		<stop  offset="1" style="stop-color:#FF825C"/>
	</linearGradient>
	<path class="st53" d="M336.9,228.7c0,0,5.4,4,8.3,5.2c2.9,1.2,8.1,1.6,8.4,1.4c1.1-0.7,2.1-4.7,2.6-8.7c0,0-4.5-1.8-5.9-0.5
		c0,0-0.1,3.5-0.2,3.9c0,0-8.4-1.4-12.6-3.4C337.4,226.6,336.9,227.2,336.9,228.7z"/>
	<path class="st54" d="M328.5,225.1c0.2-0.5,0.5-0.7,0.8-0.9c0.3-0.2,0.7-0.4,1-0.6c0.7-0.4,1.4-0.7,2.1-1.1c0.7-0.3,1.4-0.7,2.1-1
		c0.7-0.3,1.4-0.6,2.1-0.9c0.3-0.1,0.6,0,0.7,0.3c0.1,0.2,0,0.5-0.2,0.6c-0.7,0.4-1.3,0.8-2,1.1c-0.7,0.4-1.4,0.7-2.1,1.1
		c-0.7,0.3-1.4,0.7-2.1,1c-0.7,0.3-1.3,0.8-2.3,0.6C328.5,225.3,328.4,225.2,328.5,225.1C328.4,225.1,328.4,225.1,328.5,225.1z"/>
	<path class="st55" d="M351.5,231c0,0-0.1,0-0.1-0.1c0,0-0.5-0.7-1.4-0.8c-0.1,0-0.1-0.1-0.1-0.1c0-0.1,0.1-0.1,0.1-0.1
		c1,0.1,1.5,0.9,1.5,0.9C351.6,230.9,351.6,230.9,351.5,231C351.5,231,351.5,231,351.5,231z"/>
	<linearGradient id="SVGID_40_" gradientUnits="userSpaceOnUse" x1="334.2767" y1="225.231" x2="341.1135" y2="225.9919">
		<stop  offset="0" style="stop-color:#FFB39C"/>
		<stop  offset="1" style="stop-color:#FF825C"/>
	</linearGradient>
	<path class="st56" d="M336.9,228.7c0,0-0.8,0.2-1.5-0.2c-0.6-0.5-0.5-1.7-0.8-1.8s-0.4,0.5-0.1,0.5s0.4,0.2,0.1,0.4
		s-0.9-0.2-1.2-0.6c0,0-0.6,0-0.8-0.3c-0.2-0.4,0-1.8,0.7-2.2c0,0-1.2,0-1.7,0.5c-0.5,0.5-1,0.8-1.2,0.5c-0.2-0.4,0.6-1.3,0.6-1.3
		s-0.7,0-0.5-0.5s2.3-1.7,2.7-1.7c0.3,0,2.4,0.6,2.8,0.9c0.4,0.2,1.1,1.9,1.6,4C337.5,226.6,337.6,228.3,336.9,228.7z"/>
	<path class="st25" d="M334.4,226.7c0,0-0.1,0-0.1-0.1c0-0.1,0-0.1,0.1-0.1c0.7-0.3,1.5-0.1,1.5,0c0.1,0,0.1,0.1,0.1,0.1
		c0,0.1-0.1,0.1-0.1,0.1C335.7,226.6,335,226.4,334.4,226.7C334.4,226.7,334.4,226.7,334.4,226.7z"/>
	<path class="st25" d="M333.3,226.9c0,0-0.1,0-0.1-0.1c-0.2-0.4-0.2-0.8,0-1c0.5-0.6,2-0.4,2-0.4c0.1,0,0.1,0.1,0.1,0.1
		c0,0.1-0.1,0.1-0.1,0.1c0,0-1.4-0.2-1.8,0.3c-0.1,0.2-0.1,0.5,0,0.8C333.5,226.8,333.4,226.8,333.3,226.9
		C333.4,226.9,333.4,226.9,333.3,226.9z"/>
	<path class="st25" d="M333.2,224.5c0,0-0.1,0-0.1-0.1c0-0.1,0-0.1,0.1-0.1c0.7-0.2,1.6-0.2,1.6-0.2c0.1,0,0.1,0,0.1,0.1
		c0,0.1,0,0.1-0.1,0.1C334.8,224.2,334,224.2,333.2,224.5C333.2,224.5,333.2,224.5,333.2,224.5z"/>
	<path class="st25" d="M330.9,224.1C330.9,224.1,330.9,224.1,330.9,224.1c-0.1-0.1-0.1-0.2-0.1-0.2c0.1,0,1.6-1,2.1-1.1
		c0.5-0.1,1.5,0,1.5,0c0.1,0,0.1,0.1,0.1,0.1c0,0.1-0.1,0.1-0.1,0.1c0,0-1-0.1-1.4,0C332.5,223.1,331,224.1,330.9,224.1
		C331,224.1,330.9,224.1,330.9,224.1z"/>
	<polygon class="st3" points="317.5,222.5 322.8,220 330.1,229.9 325.1,232.6 	"/>
	<linearGradient id="SVGID_41_" gradientUnits="userSpaceOnUse" x1="324.9618" y1="229.8554" x2="323.2171" y2="233.3099">
		<stop  offset="0" style="stop-color:#FFB39C"/>
		<stop  offset="1" style="stop-color:#FF825C"/>
	</linearGradient>
	<path class="st57" d="M326.8,232.3c-0.2,0.4-0.7,1.1-1.6,1c-0.8-0.1-1.6-1.1-2.1-1.3c-0.5-0.2-1.5-1.7-1.3-2.1
		c0.1-0.4,1.2-2.3,2.1-2.7c0.8-0.4,0.7,0.4,0.4,0.6c-0.4,0.2-1.1,1.4-1.3,1.9c0,0,2.1-1.8,2.7-1.6c0.5,0.1,0.1,0.6,0.1,0.6
		s0.8-0.4,0.7,0.4c-0.1,0.7-1.7,2.1-1.7,2.9c0,0.4,1.8-2.4,2.1-2.4c0.4,0,0.4,0.6-0.5,2.3C326.4,231.8,327.3,231.5,326.8,232.3z"/>
	<path class="st25" d="M323.4,231.7C323.4,231.7,323.4,231.7,323.4,231.7c-0.1,0-0.1-0.1-0.1-0.2c0-0.1,0.8-2,2.5-3
		c0.1,0,0.1,0,0.2,0c0,0.1,0,0.1,0,0.2c-1.6,0.9-2.4,2.8-2.4,2.8C323.5,231.7,323.5,231.7,323.4,231.7z"/>
	<linearGradient id="SVGID_42_" gradientUnits="userSpaceOnUse" x1="337.0992" y1="219.2086" x2="359.4637" y2="218.2171">
		<stop  offset="2.600000e-07" style="stop-color:#FFF3A4"/>
		<stop  offset="1" style="stop-color:#FFCE5C"/>
	</linearGradient>
	<path class="st58" d="M350.3,226.2l5.9,0.5c0,0,2.6-14.8-3-16.3c-2.6-0.7-2.8,4-2.8,8.4C350.3,222,350.3,225.1,350.3,226.2z"/>
	<path class="st13" d="M334.8,202.9c-0.1,0-0.2-0.1-0.2-0.1c-0.2-1.5-0.1-2.4,0.4-2.9c0.5-0.5,1.4-0.6,2.8-0.3
		c1.6,0.3,2.4-1.9,2.4-1.9l0.2-0.6l0.1,0.6c0.3,1.1,1.3,4.1,2.4,4.5c0.3,0.1,0.5,0,0.8-0.2c0.1-0.1,0.2-0.1,0.2,0
		c0.1,0.1,0.1,0.2,0,0.2c-0.4,0.3-0.7,0.4-1.1,0.3c-1.2-0.4-2.1-3.1-2.5-4.2c-0.4,0.7-1.2,2-2.6,1.7c-1.3-0.3-2.1-0.2-2.5,0.2
		c-0.4,0.4-0.5,1.2-0.3,2.6C335,202.8,334.9,202.9,334.8,202.9C334.8,202.9,334.8,202.9,334.8,202.9z"/>
	<path class="st37" d="M343.7,241.7c-3.6,0-6-0.9-6-0.9c-0.1,0-0.1-0.1-0.1-0.2c0-0.1,0.1-0.1,0.2-0.1c0.1,0,8.8,3.2,18.5-2.9
		c0.1-0.1,0.2,0,0.2,0.1c0.1,0.1,0,0.2-0.1,0.2C351.7,240.9,347.1,241.7,343.7,241.7z"/>
	<path class="st37" d="M356.2,225.9C356.2,225.9,356.2,225.9,356.2,225.9c-1-0.2-5.8-0.5-5.8-0.5c-0.1,0-0.2-0.1-0.2-0.2
		c0-0.1,0.1-0.2,0.2-0.2c0.2,0,4.8,0.3,5.8,0.5c0.1,0,0.2,0.1,0.1,0.2C356.4,225.8,356.3,225.9,356.2,225.9z"/>
	<path class="st41" d="M348.6,294.1c-0.4,0-0.7,0-0.7,0c-0.1,0-0.2-0.1-0.2-0.2c0-0.1,0.1-0.2,0.2-0.2c0,0,3.5,0.1,5.5-0.5
		c0.1,0,0.2,0,0.2,0.1c0,0.1,0,0.2-0.1,0.2C352,294,349.8,294.1,348.6,294.1z"/>
	<path class="st41" d="M335.4,292.7C335.4,292.7,335.4,292.7,335.4,292.7c-3.2-0.4-5.7-1.1-5.7-1.1c-0.1,0-0.1-0.1-0.1-0.2
		c0-0.1,0.1-0.1,0.2-0.1c0,0,2.5,0.8,5.6,1.1c0.1,0,0.2,0.1,0.1,0.2C335.6,292.7,335.5,292.7,335.4,292.7z"/>
	<path class="st13" d="M336.9,220.5c-0.1,0-0.1,0-0.2-0.1c-1.2-2.8-1.4-5.3-1.7-7.6c-0.2-2-0.5-3.9-1.3-5.8c-2.2-5-2.2-9-0.1-11.7
		c2.3-3,6.5-3.4,8-3.2c0.5,0.1,0.8,0.2,0.9,0.4c0,0.1,0,0.2-0.1,0.2c-0.1,0-0.2,0-0.2-0.1c-0.2-0.3-2.9-0.6-5.6,0.7
		c-2.6,1.2-6.3,4.7-2.5,13.5c0.8,1.9,1,3.8,1.3,5.9c0.3,2.3,0.6,4.7,1.7,7.5C337.1,220.4,337,220.5,336.9,220.5
		C336.9,220.5,336.9,220.5,336.9,220.5z"/>
</g>
<g>
	<g>
		<path class="st13" d="M215.7,173c-0.1,0-0.1,0-0.2-0.1l-1.5-1.3l1-5.4l-1.5-1.3c-0.1-0.1-0.1-0.2,0-0.4c0.1-0.1,0.2-0.1,0.4,0
			l1.7,1.5l-1,5.4l1.3,1.1c0.1,0.1,0.1,0.2,0,0.4C215.8,173,215.8,173,215.7,173z"/>
		
			<linearGradient id="SVGID_43_" gradientUnits="userSpaceOnUse" x1="-2318.9419" y1="2299.7888" x2="-2322.5818" y2="2301.864" gradientTransform="matrix(0.6451 -0.7641 0.7641 0.6451 -43.4116 -3083.2073)">
			<stop  offset="0" style="stop-color:#8F89E0"/>
			<stop  offset="1" style="stop-color:#5B24B7"/>
		</linearGradient>
		<path class="st59" d="M219.5,176.8c-0.2,0-0.4-0.1-0.5-0.2l-3.9-3.3c-0.4-0.3-0.4-0.8-0.1-1.2c0.3-0.4,0.8-0.4,1.2-0.1l3.9,3.3
			c0.4,0.3,0.4,0.8,0.1,1.2C219.9,176.7,219.7,176.8,219.5,176.8z"/>
		<path class="st60" d="M207.7,174c-0.5,0-1-0.2-1.4-0.5c-1-0.8-1.1-2.2-0.3-3.2l4.5-5.4c0.8-1,2.2-1.1,3.2-0.3
			c1,0.8,1.1,2.2,0.3,3.2l-4.5,5.4C209,173.7,208.3,174,207.7,174z"/>
	</g>
	
		<linearGradient id="SVGID_44_" gradientUnits="userSpaceOnUse" x1="-7171.5239" y1="14639.8115" x2="-7176.1035" y2="14636.3828" gradientTransform="matrix(0.4331 -0.9014 -0.9014 -0.4331 16486.8027 118.7087)">
		<stop  offset="0" style="stop-color:#FFB39C"/>
		<stop  offset="1" style="stop-color:#FF825C"/>
	</linearGradient>
	<path class="st61" d="M186.6,241.3c0,0,1.8,4.5,1,4.4c-0.8-0.1-1.2-1.6-1.2-1.6s-0.3,0.5-0.5,1.6c-0.2,1.7-0.7,3-1,2.5
		c-0.3-0.5,0-2.5,0-2.5s-0.4,3.1-0.9,2.9c-0.5-0.1,0.1-3.3,0.1-3.3s-0.5,2.7-0.8,2.5c-0.6-0.3-0.1-2.9-0.1-2.9s-0.9,2.1-1,1.4
		c-0.1-0.7,0.5-2.1,1.3-3.8c0.5-1,1.4-2,1.5-2.2C186.3,240.1,186.6,241.3,186.6,241.3z"/>
	
		<linearGradient id="SVGID_45_" gradientUnits="userSpaceOnUse" x1="5470.9385" y1="-14725.208" x2="5471.4629" y2="-14721.9961" gradientTransform="matrix(-0.3375 -0.9413 0.9413 -0.3375 15924.4902 355.0472)">
		<stop  offset="0" style="stop-color:#FFB39C"/>
		<stop  offset="1" style="stop-color:#FF825C"/>
	</linearGradient>
	<path class="st62" d="M215.8,177.1c0,0-0.8-3.8-0.3-3.4c0.6,0.4,0.8,0.7,0.8,0.7s0.1-0.3,0.2-0.8c0.2-1.1,0.3-1.4,0.8-1.2
		c0.4,0.2,0.2,0.7,0.2,0.7s-0.4-0.8,0.4-0.4c0.4,0.2,0.3,0.7,0.3,0.7s-0.4-0.6,0.1-0.3c0.4,0.2,0.6,0.8,0.6,0.8s-0.7-0.6,0-0.1
		c0.5,0.4,0.8,0.7,0,2.1c-0.5,0.9-1.5,1.7-1.5,1.7L215.8,177.1z"/>
	
		<linearGradient id="SVGID_46_" gradientUnits="userSpaceOnUse" x1="-15536.2529" y1="201.7369" x2="-15536.1436" y2="200.6029" gradientTransform="matrix(1 0 0 1 15738.8613 0)">
		<stop  offset="0" style="stop-color:#FFB39C"/>
		<stop  offset="1" style="stop-color:#FF825C"/>
	</linearGradient>
	<polygon class="st63" points="203.9,199 203.2,202.9 201.7,200.8 	"/>
	
		<linearGradient id="SVGID_47_" gradientUnits="userSpaceOnUse" x1="15356.4961" y1="282.9041" x2="15353.1777" y2="272.8723" gradientTransform="matrix(-1 0 0 1 15545.1533 0)">
		<stop  offset="0" style="stop-color:#FFB39C"/>
		<stop  offset="1" style="stop-color:#FF825C"/>
	</linearGradient>
	<path class="st64" d="M188.2,272.2c0,0-1.4,4.2-1.9,9.1c-0.5,4.9-1.2,11.7-1.7,13.1c0,0,0.5,1.1,1.7,1.1l8.5-19.3l-2-2.6
		L188.2,272.2z"/>
	
		<linearGradient id="SVGID_48_" gradientUnits="userSpaceOnUse" x1="-15551.1699" y1="298.7346" x2="-15546.4111" y2="299.4034" gradientTransform="matrix(1 0 0 1 15738.8613 0)">
		<stop  offset="0" style="stop-color:#6060A4"/>
		<stop  offset="0.9966" style="stop-color:#200455"/>
	</linearGradient>
	<path class="st65" d="M190.5,303c-0.3,0.2-1.1,0.2-1.9,0.2c-1.7,0-3.8-0.3-4.1-0.7c-0.5-0.5-1.1-5.6-1.1-6.3c0-0.1,0-0.2,0-0.2
		c0.2-0.8,1.3-1.8,1.3-1.8c0.3-0.3,0.9-0.4,1.3,0c0.5,0.5,1.5,4.3,2,5.7c0.5,1.4,1.1,1.9,1.5,2C190.1,302.1,191.5,302.6,190.5,303z"
		/>
	
		<linearGradient id="SVGID_49_" gradientUnits="userSpaceOnUse" x1="15341.9834" y1="287.6722" x2="15340.749" y2="277.1003" gradientTransform="matrix(-1 0 0 1 15545.1533 0)">
		<stop  offset="0" style="stop-color:#FFB39C"/>
		<stop  offset="1" style="stop-color:#FF825C"/>
	</linearGradient>
	<path class="st66" d="M201.1,300.5c-0.6,0.2-1,0-1,0s0-0.3,0.1-0.8c0.2-1.9,0.1-7,0-10.2c-0.1-4.6,0.3-10.2,0.3-10.2l4-0.6l3.3,0.6
		c0,0-1.6,6.2-2.3,8.8c-0.6,2.2-2.6,8.9-3.2,11l-0.2,0.7C202.1,299.9,201.6,300.4,201.1,300.5z"/>
	
		<linearGradient id="SVGID_50_" gradientUnits="userSpaceOnUse" x1="-15536.0186" y1="301.8201" x2="-15533.6006" y2="299.1964" gradientTransform="matrix(1 0 0 1 15738.8613 0)">
		<stop  offset="0" style="stop-color:#6060A4"/>
		<stop  offset="0.9966" style="stop-color:#200455"/>
	</linearGradient>
	<path class="st67" d="M208.2,300.9c0,0.6-4.5,2.8-5.1,2.9c-0.6,0.2-3.5,0.3-4-0.6s1-3.4,1-3.4l0,0c0.3-0.4,0.7-0.1,1.1,0.3
		c0.1,0.1,0.2,0.2,0.3,0.3c0.5,0.7,0.9,1.5,1.1,1.6c0.3,0.2,3.1-0.9,3.1-1.2c0-0.3-1.5-0.9-1.5-0.9c0,0,0.1,0,0.1,0
		C206.1,299.7,208.2,300.3,208.2,300.9z"/>
	
		<linearGradient id="SVGID_51_" gradientUnits="userSpaceOnUse" x1="-15536.8799" y1="300.6094" x2="-15532.7393" y2="300.6094" gradientTransform="matrix(1 0 0 1 15738.8613 0)">
		<stop  offset="0" style="stop-color:#FFB39C"/>
		<stop  offset="1" style="stop-color:#FF825C"/>
	</linearGradient>
	<path class="st68" d="M205.6,300.7c0,0.3-2.8,1.4-3.1,1.2c-0.2-0.1-0.6-0.9-1.1-1.6c0.2-0.1,0.4-0.2,0.6-0.4c0,0,0.1-0.3,0.2-0.7
		l0,0c0,0,1.8,0.5,1.8,0.5C204.1,299.8,205.6,300.4,205.6,300.7z"/>
	
		<linearGradient id="SVGID_52_" gradientUnits="userSpaceOnUse" x1="-15477.9648" y1="-1545.5233" x2="-15464.9502" y2="-1546.3668" gradientTransform="matrix(0.9934 -0.115 0.115 0.9934 15731.6768 -17.8343)">
		<stop  offset="0" style="stop-color:#8F89E0"/>
		<stop  offset="1" style="stop-color:#5B24B7"/>
	</linearGradient>
	<path class="st69" d="M197,218.9c0,0-9,19.7-9.8,22.7c0,0-1.5-0.7-2.6-1c0,0,3.3-17.7,9.8-33.1C194.3,207.5,196.3,216.8,197,218.9z
		"/>
	
		<linearGradient id="SVGID_53_" gradientUnits="userSpaceOnUse" x1="-15556.9766" y1="238.6865" x2="-15539.0615" y2="259.3685" gradientTransform="matrix(1 0 0 1 15738.8613 0)">
		<stop  offset="9.999999e-08" style="stop-color:#FF476A"/>
		<stop  offset="1" style="stop-color:#DE1A40"/>
	</linearGradient>
	<path class="st70" d="M201.5,256.4c-0.2,0.9-0.5,1.8-0.7,2.7c-0.6,2.2-1.3,4.4-1.9,7c-1,4.3-4.1,10.4-4.1,10.4
		c-2-2.3-6.8-3.9-6.8-3.9c0.5-2,3.3-11.7,3.8-15.4c0.3-2.5-1.3-15.8-0.4-19.7c0.6-2.4,2.7-5.8,2.7-5.8l0,0c1.5,0.1,5.3,0.1,5.3,0.1
		l2.2,22.8C201.7,254.7,201.8,255.4,201.5,256.4z"/>
	
		<linearGradient id="SVGID_54_" gradientUnits="userSpaceOnUse" x1="-15536.1904" y1="198.3516" x2="-15534.0039" y2="195.1955" gradientTransform="matrix(1 0 0 1 15738.8613 0)">
		<stop  offset="0" style="stop-color:#FFB39C"/>
		<stop  offset="1" style="stop-color:#FF825C"/>
	</linearGradient>
	<path class="st71" d="M202.6,200.3c0,0,1.2,0.2,1.9-0.6c0.7-0.8,1-5.1-0.3-7.7C204.2,192.1,201.6,197.2,202.6,200.3z"/>
	
		<linearGradient id="SVGID_55_" gradientUnits="userSpaceOnUse" x1="-15526.5684" y1="250.051" x2="-15556.3896" y2="267.0538" gradientTransform="matrix(1 0 0 1 15738.8613 0)">
		<stop  offset="9.999999e-08" style="stop-color:#FF476A"/>
		<stop  offset="1" style="stop-color:#DE1A40"/>
	</linearGradient>
	<path class="st72" d="M209.9,259.2c0,6.6-1,17.3-1.9,20.3c0,0-5.3,1.2-7.8,0.3c0,0,0.2-9.6,0.2-11.6c0-1.5-0.5-10.4-2-13.8
		c-4.5-10.1-4.2-12.4-3.4-18c0.3-1.9,1.5-4.5,1.5-4.5s6.4,0.3,9.9-1.8c0,0,1.9,7.3,2.3,10.5C209.3,243.9,209.9,256.6,209.9,259.2z"
		/>
	
		<linearGradient id="SVGID_56_" gradientUnits="userSpaceOnUse" x1="-15548.7256" y1="229.065" x2="-15526.2363" y2="202.9276" gradientTransform="matrix(1 0 0 1 15738.8613 0)">
		<stop  offset="0" style="stop-color:#8F89E0"/>
		<stop  offset="1" style="stop-color:#5B24B7"/>
	</linearGradient>
	<path class="st73" d="M193.8,204c0,0-0.5,4.8,0,8.5c0.5,3.8,0.7,8.4-0.2,10.7c-0.8,2.3-6.6,6.4-4.9,9c1.6,2.6,9.7,3.3,13.6,1.6
		c3.9-1.6,8.1-7.3,8-8.3c-0.2-1-2.9-5.3-2.5-7.6c0.3-2.3,3.1-8.2,2-11l-4.3-2.6l-3-3.1C202.5,201.2,201.5,205.4,193.8,204z"/>
	
		<linearGradient id="SVGID_57_" gradientUnits="userSpaceOnUse" x1="-15523.6045" y1="186.6645" x2="-15539.1943" y2="219.5603" gradientTransform="matrix(1 0 0 1 15738.8613 0)">
		<stop  offset="0" style="stop-color:#8F89E0"/>
		<stop  offset="1" style="stop-color:#5B24B7"/>
	</linearGradient>
	<path class="st74" d="M203,201.8c0,0,4.6-2.8,5.9-4.1s4.3-5.1,5.1-8.5c0.8-3.4,1.6-12.3,1.6-12.3s1.3-0.2,2.1,0.8
		c0,0,0.3,8.9,0,12.8c-0.3,3.6-6.2,15.2-9.6,19.4c-0.5,0.7-1.5,0.9-2.3,0.6C203.6,209.8,199.9,207.6,203,201.8z"/>
	<g>
		<path class="st75" d="M200.9,278.2C201,278.2,201,278.2,200.9,278.2c0.1-0.1,0.1-0.2,0-0.2c-0.3,0-0.5-0.1-0.5-0.1
			c0,0-0.1,0-0.1,0.1c0,0,0,0.1,0.1,0.1C200.5,278.1,200.6,278.2,200.9,278.2C200.9,278.2,200.9,278.2,200.9,278.2z"/>
		<path class="st75" d="M203.9,278.4C203.9,278.4,203.8,278.4,203.9,278.4c-0.1-0.1,0-0.2,0-0.2c0.3,0,0.7,0,1,0c0,0,0.1,0,0.1,0.1
			c0,0,0,0.1-0.1,0.1c-0.2,0-0.5,0-0.7,0C204.1,278.4,204,278.4,203.9,278.4z M202.9,278.4c-0.3,0-0.7,0-1-0.1c0,0-0.1,0-0.1-0.1
			c0,0,0-0.1,0.1-0.1c0.3,0,0.7,0.1,1,0.1C203,278.2,203,278.2,202.9,278.4C203,278.3,203,278.4,202.9,278.4
			C202.9,278.4,202.9,278.4,202.9,278.4z M205.8,278.2C205.8,278.2,205.9,278.2,205.8,278.2c0.4-0.1,0.8-0.2,1.1-0.2
			c0,0,0.1,0,0.1,0.1c0,0,0,0.1-0.1,0.1C206.6,278.2,206.3,278.3,205.8,278.2C205.9,278.3,205.9,278.3,205.8,278.2
			C205.9,278.3,205.8,278.3,205.8,278.2z"/>
		<path class="st75" d="M207.9,277.9C207.9,277.9,207.9,277.9,207.9,277.9c0.2-0.1,0.3-0.1,0.5-0.2c0,0,0.1-0.1,0-0.1
			c0,0-0.1-0.1-0.1,0c-0.1,0.1-0.3,0.1-0.4,0.2C207.8,277.8,207.8,277.8,207.9,277.9C207.8,277.9,207.8,277.9,207.9,277.9z"/>
	</g>
	<g>
		<path class="st75" d="M189.1,271.1C189.1,271.1,189.1,271.1,189.1,271.1c0.1-0.1,0.1-0.1,0-0.2c-0.3-0.1-0.5-0.1-0.5-0.1
			c0,0-0.1,0-0.1,0.1c0,0,0,0.1,0.1,0.1C188.6,271,188.8,271,189.1,271.1C189.1,271.1,189.1,271.1,189.1,271.1z"/>
		<path class="st75" d="M194.4,273.5c-0.2-0.2-0.5-0.4-0.8-0.5c0,0,0-0.1,0-0.1c0,0,0.1,0,0.1,0c0.3,0.2,0.6,0.4,0.8,0.6
			c0,0,0,0.1,0,0.1C194.5,273.5,194.5,273.6,194.4,273.5C194.5,273.6,194.5,273.5,194.4,273.5z M192.8,272.5
			c-0.3-0.1-0.6-0.3-0.9-0.4c0,0-0.1-0.1,0-0.1c0,0,0.1-0.1,0.1,0c0.3,0.1,0.6,0.3,0.9,0.4c0,0,0.1,0.1,0,0.1
			C192.9,272.5,192.8,272.5,192.8,272.5C192.8,272.5,192.8,272.5,192.8,272.5z M190.9,271.7c-0.3-0.1-0.6-0.2-0.9-0.3
			c0,0-0.1-0.1-0.1-0.1c0,0,0.1-0.1,0.1-0.1c0.3,0.1,0.6,0.2,0.9,0.3c0,0,0.1,0.1,0,0.1C191,271.7,191,271.7,190.9,271.7
			C191,271.7,190.9,271.7,190.9,271.7z"/>
		<path class="st75" d="M195.5,274.6C195.5,274.6,195.6,274.6,195.5,274.6c0.1,0,0.1-0.1,0.1-0.1c-0.1-0.1-0.2-0.2-0.3-0.4
			c0,0-0.1,0-0.1,0c0,0,0,0.1,0,0.1C195.3,274.3,195.4,274.4,195.5,274.6C195.5,274.6,195.5,274.6,195.5,274.6z"/>
	</g>
	<path class="st13" d="M201.5,207.2c0,0,4.1-8,3-14.3c-1.1-6.2-8.9-6.6-12.1-1.8c-3.3,4.8-2.8,10.7-7.4,11.5
		c-4.6,0.8-2.5,4.1-4.4,5.2c-2,1.1-6.4-0.2-6.6,5.9C173.8,219.9,189.3,230.4,201.5,207.2z"/>
	
		<linearGradient id="SVGID_58_" gradientUnits="userSpaceOnUse" x1="-15553.4834" y1="307.1265" x2="-15552.4033" y2="294.8568" gradientTransform="matrix(1 0 0 1 15738.8613 0)">
		<stop  offset="0" style="stop-color:#6060A4"/>
		<stop  offset="0.9966" style="stop-color:#200455"/>
	</linearGradient>
	<path class="st76" d="M188.6,303.2c-1.7,0-3.8-0.3-4.1-0.7c-0.5-0.5-1.1-5.6-1.1-6.3c0-0.1,0-0.2,0-0.2c0.3-0.2,0.7-0.4,1.1-0.3
		C185.7,296,187.2,301.7,188.6,303.2z"/>
	<path class="st13" d="M195.6,215.2c0,0-0.1,0-0.1-0.1c-0.1-0.1-0.1-0.2,0-0.2c7.3-6.3,9.2-12.3,9.4-16.2c0.3-4.3-1.2-7.1-1.2-7.1
		c0-0.1,0-0.2,0.1-0.2c0.1,0,0.2,0,0.2,0.1c0.1,0.1,1.5,2.9,1.2,7.3c-0.3,4-2.1,10.1-9.5,16.5C195.7,215.2,195.6,215.2,195.6,215.2z
		"/>
	<path class="st13" d="M174.4,215.6c-0.1,0-0.1,0-0.1-0.1c-0.1-0.1-1.4-2.9-0.7-4.7c0.9-2.4,2.8-2.7,4.5-3c0.5-0.1,1-0.2,1.5-0.3
		c0.8-0.2,0.9-1,1.2-2c0.4-1.5,0.8-3.4,3.8-3.8c4-0.6,6.7-8.6,6.7-8.7c0-0.1,0.1-0.1,0.2-0.1c0.1,0,0.1,0.1,0.1,0.2
		c-0.1,0.3-2.8,8.3-7,8.9c-2.8,0.4-3.2,2.1-3.5,3.6c-0.2,1-0.5,1.9-1.4,2.2c-0.5,0.1-1,0.2-1.5,0.3c-1.7,0.3-3.4,0.6-4.3,2.8
		c-0.7,1.7,0.7,4.5,0.7,4.5C174.6,215.4,174.6,215.5,174.4,215.6C174.5,215.6,174.5,215.6,174.4,215.6z"/>
</g>
<g>
	<path class="st13" d="M262.8,61C262.7,61,262.7,60.9,262.8,61c-0.2-0.1-0.2-0.2-0.1-0.2c1.9-3.6-0.9-5.8-0.9-5.8
		c-0.1-0.1-0.1-0.2,0-0.2c0.1-0.1,0.2-0.1,0.2,0c0,0,3.1,2.4,1,6.2C262.9,60.9,262.8,61,262.8,61z"/>
	<path class="st13" d="M252,60.8c-0.1,0-0.1,0-0.2-0.1c-0.8-2.7-0.7-4.8,0.5-6c2-2.2,6-1.3,6.2-1.3c0.1,0,0.1,0.1,0.1,0.2
		c0,0.1-0.1,0.1-0.2,0.1c0,0-4.1-0.8-5.9,1.2c-1.1,1.2-1.2,3.1-0.4,5.7C252.1,60.7,252.1,60.8,252,60.8C252,60.8,252,60.8,252,60.8z
		"/>
	<linearGradient id="SVGID_59_" gradientUnits="userSpaceOnUse" x1="245.3372" y1="133.7596" x2="255.6104" y2="133.7596">
		<stop  offset="0" style="stop-color:#6060A4"/>
		<stop  offset="0.9966" style="stop-color:#200455"/>
	</linearGradient>
	<path class="st77" d="M253,131.1c0,0,0,1.2-0.1,2.2c0,0.6-0.1,1.1-0.2,1.3c-0.2,0.5-1.1,0.4-1.4,1c-0.3,0.5-0.8,1.2-3.1,1.3
		c-2.3,0.1-3.8-0.1-4-0.8c-0.1-0.3-0.1-0.5-0.1-0.8v0c0-0.4,0.2-0.8,1-1.6c1.4-1.3,2.5-2.5,2.5-2.5S250.6,130.1,253,131.1z"/>
	<path class="st78" d="M252.9,133.2c0,0.6-0.1,1.1-0.2,1.3c-0.2,0.5-1.1,0.4-1.4,1c-0.3,0.5-0.8,1.2-3.1,1.3c-2.3,0.1-3.8-0.1-4-0.8
		c-0.1-0.3-0.1-0.5-0.1-0.8v0c0,0,3.8,0.6,5.3-0.1C251,134.6,250.9,134.1,252.9,133.2z"/>
	<path class="st79" d="M249.7,132.6C249.6,132.6,249.6,132.6,249.7,132.6c-1.6-0.4-2.8-0.1-2.9-0.1c-0.1,0-0.2,0-0.2-0.1
		c0-0.1,0-0.2,0.1-0.2c0.1,0,1.3-0.3,3,0.1c0.1,0,0.1,0.1,0.1,0.2C249.8,132.6,249.7,132.6,249.7,132.6z"/>
	<path class="st79" d="M250.2,132.1C250.2,132.1,250.2,132.1,250.2,132.1c-1.6-0.4-2.8-0.1-2.9-0.1c-0.1,0-0.2,0-0.2-0.1
		c0-0.1,0-0.2,0.1-0.2c0.1,0,1.3-0.3,3,0.1c0.1,0,0.1,0.1,0.1,0.2C250.3,132.1,250.3,132.1,250.2,132.1z"/>
	<linearGradient id="SVGID_60_" gradientUnits="userSpaceOnUse" x1="263.8441" y1="135.8506" x2="268.1123" y2="130.0704">
		<stop  offset="0" style="stop-color:#6060A4"/>
		<stop  offset="0.9966" style="stop-color:#200455"/>
	</linearGradient>
	<path class="st80" d="M261.1,131.1c0,0,0,1.2,0.1,2.2c0,0.6,0.1,1.1,0.2,1.3c0.2,0.5,1.1,0.4,1.4,1c0.3,0.5,0.8,1.2,3.1,1.3
		c2.3,0.1,3.8-0.1,4-0.8c0.1-0.3,0.1-0.5,0.1-0.8v0c0-0.4-0.2-0.8-1-1.6c-1.4-1.3-2.5-2.5-2.5-2.5S263.5,130.1,261.1,131.1z"/>
	<path class="st78" d="M261.2,133.2c0,0.6,0.1,1.1,0.2,1.3c0.2,0.5,1.1,0.4,1.4,1c0.3,0.5,0.8,1.2,3.1,1.3c2.3,0.1,3.8-0.1,4-0.8
		c0.1-0.3,0.1-0.5,0.1-0.8v0c0,0-3.8,0.6-5.3-0.1C263.1,134.6,263.2,134.1,261.2,133.2z"/>
	<path class="st81" d="M264.4,132.6c-0.1,0-0.1,0-0.2-0.1c0-0.1,0-0.2,0.1-0.2c1.7-0.4,3-0.1,3-0.1c0.1,0,0.1,0.1,0.1,0.2
		s-0.1,0.1-0.2,0.1C267.3,132.5,266,132.2,264.4,132.6C264.4,132.6,264.4,132.6,264.4,132.6z"/>
	<path class="st81" d="M264.1,132.1c-0.1,0-0.1,0-0.2-0.1c0-0.1,0-0.2,0.1-0.2c1.6-0.4,2.8-0.1,2.8-0.1c0.1,0,0.1,0.1,0.1,0.2
		c0,0.1-0.1,0.1-0.2,0.1C266.8,132,265.6,131.7,264.1,132.1C264.1,132.1,264.1,132.1,264.1,132.1z"/>
	<linearGradient id="SVGID_61_" gradientUnits="userSpaceOnUse" x1="236.603" y1="113.2624" x2="254.5895" y2="113.2624">
		<stop  offset="0" style="stop-color:#6060A4"/>
		<stop  offset="0.9966" style="stop-color:#200455"/>
	</linearGradient>
	<path class="st82" d="M247.9,94.9c0,0-5.6,1.7-5.9,3.9c-0.3,2.2,1.7,15,2.4,18.7c0.7,3.7,2.4,14.1,2.4,14.1s2.9-1,6.6-0.3
		c0,0-0.1-19.7-1.3-24.9c0,0,2.4-2.7,4.1-3.1v-8.4H247.9z"/>
	<linearGradient id="SVGID_62_" gradientUnits="userSpaceOnUse" x1="280.6107" y1="107.7949" x2="262.9799" y2="113.1688">
		<stop  offset="0" style="stop-color:#6060A4"/>
		<stop  offset="0.9966" style="stop-color:#200455"/>
	</linearGradient>
	<path class="st83" d="M266.3,94.9c0,0,5.6,1.7,5.9,3.9c0.3,2.2-1.7,15-2.4,18.7c-0.7,3.7-2.4,14.1-2.4,14.1s-2.9-1-6.6-0.3
		c0,0,0.1-19.7,1.3-24.9c0,0-2.4-2.7-4.1-3.1v-8.4H266.3z"/>
	<linearGradient id="SVGID_63_" gradientUnits="userSpaceOnUse" x1="256.2316" y1="106.8304" x2="256.4681" y2="105.0652">
		<stop  offset="0" style="stop-color:#6060A4"/>
		<stop  offset="0.9966" style="stop-color:#200455"/>
	</linearGradient>
	<path class="st84" d="M256,103.4c0,0,1.2-0.1,2.2,0v-6.2H256V103.4z"/>
	<linearGradient id="SVGID_64_" gradientUnits="userSpaceOnUse" x1="241.2166" y1="63.6718" x2="259.0689" y2="81.5241">
		<stop  offset="9.999999e-08" style="stop-color:#FF476A"/>
		<stop  offset="1" style="stop-color:#DE1A40"/>
	</linearGradient>
	<path class="st85" d="M269.2,66.4c0,0-2.8-2.2-11.8-2.7c-7.9,0.1-11.9,2.7-11.9,2.7c-1.9,6.1,1.1,27.8,1.1,27.8h21.6
		C268.2,94.3,271.1,72.5,269.2,66.4z"/>
	<linearGradient id="SVGID_65_" gradientUnits="userSpaceOnUse" x1="261.6679" y1="85.1656" x2="272.2593" y2="92.6996">
		<stop  offset="0" style="stop-color:#FFB39C"/>
		<stop  offset="1" style="stop-color:#FF825C"/>
	</linearGradient>
	<path class="st86" d="M266.6,95.7c0,0,7.9-2.9,9-5.6c0,0-0.4-6.9-8.1-1.8C267.4,88.3,265.7,91.3,266.6,95.7z"/>
	<linearGradient id="SVGID_66_" gradientUnits="userSpaceOnUse" x1="235.7157" y1="91.0246" x2="250.0954" y2="91.0246">
		<stop  offset="0" style="stop-color:#FFB39C"/>
		<stop  offset="1" style="stop-color:#FF825C"/>
	</linearGradient>
	<path class="st87" d="M248.2,95.7c0,0-7.9-2.9-9-5.6c0,0,0.4-6.9,8.1-1.8C247.3,88.3,249.1,91.3,248.2,95.7z"/>
	<linearGradient id="SVGID_67_" gradientUnits="userSpaceOnUse" x1="233.6632" y1="67.7838" x2="248.4108" y2="85.6038">
		<stop  offset="9.999999e-08" style="stop-color:#FF476A"/>
		<stop  offset="1" style="stop-color:#DE1A40"/>
	</linearGradient>
	<path class="st88" d="M245.5,66.4c0,0,3.4,4.7,2.3,11.9l-0.4,9.9c0,0-6.6-3.8-8.1,1.8c0,0,0.1-3.8,1.1-9.1
		C241.4,75.6,239.8,70.1,245.5,66.4z"/>
	<linearGradient id="SVGID_68_" gradientUnits="userSpaceOnUse" x1="260.3034" y1="82.543" x2="273.2697" y2="77.9059">
		<stop  offset="9.999999e-08" style="stop-color:#FF476A"/>
		<stop  offset="1" style="stop-color:#DE1A40"/>
	</linearGradient>
	<path class="st89" d="M269.2,66.4c0,0-3.3,4.7-2.2,11.9l0.4,9.9c0,0,6.6-3.8,8.1,1.8c0,0,0-3.8-1.1-9.1
		C273.3,75.6,274.9,70.1,269.2,66.4z"/>
	<linearGradient id="SVGID_69_" gradientUnits="userSpaceOnUse" x1="257.5105" y1="72.6918" x2="257.2492" y2="64.2789">
		<stop  offset="0" style="stop-color:#FFB39C"/>
		<stop  offset="1" style="stop-color:#FF825C"/>
	</linearGradient>
	<path class="st90" d="M252.7,64c0,0-0.7,7.1,4.6,7.2c5.5,0.1,4.4-7,4.4-7S256.8,62.8,252.7,64z"/>
	<linearGradient id="SVGID_70_" gradientUnits="userSpaceOnUse" x1="262.2173" y1="67.3065" x2="262.5725" y2="58.782">
		<stop  offset="0" style="stop-color:#FFB39C"/>
		<stop  offset="1" style="stop-color:#FF825C"/>
	</linearGradient>
	<path class="st91" d="M262.3,60.5c0,0,0.8,0,0.8,0.9c0,1.4-1.3,2.7-1.3,2.7S261.8,61.7,262.3,60.5z"/>
	<linearGradient id="SVGID_71_" gradientUnits="userSpaceOnUse" x1="252.0205" y1="66.8816" x2="252.3757" y2="58.3572">
		<stop  offset="0" style="stop-color:#FFB39C"/>
		<stop  offset="1" style="stop-color:#FF825C"/>
	</linearGradient>
	<path class="st92" d="M252.4,60.5c0,0-0.8,0-0.8,0.9c0,1.4,1,2.6,1,2.6S252.9,61.7,252.4,60.5z"/>
	<linearGradient id="SVGID_72_" gradientUnits="userSpaceOnUse" x1="257.0603" y1="67.0916" x2="257.4155" y2="58.5671">
		<stop  offset="0" style="stop-color:#FFB39C"/>
		<stop  offset="1" style="stop-color:#FF825C"/>
	</linearGradient>
	<path class="st93" d="M252.4,60c0,0-0.5,7.2,3.1,8.8c3.6,1.6,5.8-2.1,6.2-3.6c0.4-1.5,0.5-5.2,0.5-5.2S256.8,55.8,252.4,60z"/>
	<path class="st13" d="M252,60.6c0,0-0.9-3.3,0.5-5.3c1.4-2,3.9-2,5.4-2c1.4,0,4.1,0.7,4.9,2.3c0.8,1.6,0.1,5,0.1,5S261,60,260.4,60
		c-0.5,0-2.1,0.9-4,0.2C254.4,59.5,254.4,59.7,252,60.6z"/>
	<linearGradient id="SVGID_73_" gradientUnits="userSpaceOnUse" x1="245.9883" y1="90.4966" x2="268.5083" y2="90.4966">
		<stop  offset="0" style="stop-color:#F5E9FF"/>
		<stop  offset="1" style="stop-color:#B1AFFF"/>
	</linearGradient>
	<path class="st94" d="M268.5,84.5l-1.8,11.6l-0.1,0.5c0,0.3-0.3,0.6-0.7,0.6h-17.4c-0.3,0-0.6-0.3-0.7-0.6l-0.1-0.5L246,84.5
		c-0.1-0.4,0.3-0.8,0.7-0.8h21.2C268.2,83.8,268.6,84.1,268.5,84.5z"/>
	<path class="st13" d="M257.7,61.2c-0.7,0-1.3-0.3-1.8-0.5c-0.3-0.2-0.6-0.3-0.9-0.4c-0.3-0.1-0.6,0-1,0.1c-0.5,0.1-1.2,0.3-1.8,0.1
		c-0.1,0-0.1-0.1-0.1-0.2c0-0.1,0.1-0.1,0.2-0.1c0.6,0.1,1.1,0,1.6-0.1c0.4-0.1,0.8-0.2,1.2-0.1c0.3,0.1,0.6,0.2,1,0.4
		c1,0.5,2.2,1.1,4.5-0.9c0.1-0.1,0.2-0.1,0.2,0c0.1,0.1,0.1,0.2,0,0.2C259.4,60.8,258.5,61.2,257.7,61.2z"/>
	<path class="st95" d="M251.8,106.3c-0.1,0-0.1,0-0.1-0.1c-0.6-1.1-2-2.5-2.3-2.6c0,0-0.1,0-0.1,0c-0.1-0.1-0.1-0.2,0-0.2
		c0,0,0.1-0.1,0.2-0.1c0.3,0,1.9,1.7,2.5,2.8C252,106.1,252,106.2,251.8,106.3C251.9,106.3,251.9,106.3,251.8,106.3z M249.6,103.5
		L249.6,103.5L249.6,103.5z M249.6,103.5L249.6,103.5L249.6,103.5z"/>
	<path class="st95" d="M251.8,106.6C251.8,106.6,251.8,106.6,251.8,106.6c-0.4-0.2-1.3-0.3-1.7-0.3c-0.1,0-0.2-0.1-0.1-0.2
		c0-0.1,0.1-0.2,0.2-0.1c0.1,0,1.2,0.1,1.7,0.3c0.1,0,0.1,0.1,0.1,0.2C252,106.6,251.9,106.6,251.8,106.6z"/>
	<path class="st95" d="M262.2,106.3C262.2,106.3,262.2,106.3,262.2,106.3c-0.2-0.1-0.2-0.2-0.1-0.2c0.5-1,1.2-2.1,1.8-2.4
		c0.1,0,0.2,0,0.2,0.1c0,0.1,0,0.2-0.1,0.2c-0.4,0.2-1.1,1.1-1.7,2.2C262.3,106.2,262.3,106.3,262.2,106.3z"/>
	<path class="st95" d="M262.5,106.4c-0.1,0-0.1,0-0.1-0.1c0-0.1,0-0.2,0.1-0.2c0.4-0.2,0.9-0.3,0.9-0.3c0.1,0,0.2,0,0.2,0.1
		c0,0.1,0,0.2-0.1,0.2C263.5,106.1,263,106.2,262.5,106.4C262.6,106.4,262.6,106.4,262.5,106.4z"/>
	<path class="st95" d="M246.7,130.6c-0.1,0-0.1,0-0.1-0.1c0-0.1,0-0.2,0.1-0.2c0,0,3-1.8,6.7-0.4c0.1,0,0.1,0.1,0.1,0.2
		c0,0.1-0.1,0.1-0.2,0.1C249.6,128.9,246.8,130.6,246.7,130.6C246.7,130.6,246.7,130.6,246.7,130.6z"/>
	<path class="st95" d="M267.4,130.6C267.4,130.6,267.3,130.6,267.4,130.6c-0.1,0-2.8-1.7-6.4-0.4c-0.1,0-0.2,0-0.2-0.1
		c0-0.1,0-0.2,0.1-0.2c3.7-1.4,6.4,0.3,6.6,0.4c0.1,0,0.1,0.1,0.1,0.2C267.5,130.6,267.4,130.6,267.4,130.6z"/>
	<linearGradient id="SVGID_74_" gradientUnits="userSpaceOnUse" x1="246.6492" y1="88.5315" x2="250.9076" y2="91.7344">
		<stop  offset="0" style="stop-color:#F5E9FF"/>
		<stop  offset="1" style="stop-color:#B1AFFF"/>
	</linearGradient>
	<path class="st96" d="M266.7,96.2l-0.1,0.5c0,0.3-0.3,0.6-0.7,0.6h-17.4c-0.3,0-0.6-0.3-0.7-0.6l-0.1-0.5H266.7z"/>
	<linearGradient id="SVGID_75_" gradientUnits="userSpaceOnUse" x1="253.9628" y1="83.8215" x2="255.2871" y2="84.8176">
		<stop  offset="0" style="stop-color:#F5E9FF"/>
		<stop  offset="1" style="stop-color:#B1AFFF"/>
	</linearGradient>
	<rect x="254.6" y="85.8" class="st97" width="5.2" height="1"/>
</g>
</svg>
