<svg id="Layer_1" data-name="Layer 1" xmlns="http://www.w3.org/2000/svg" viewBox="0 0 1355.49 211.78"><defs><style>.cls-1{fill:#2e3134;}.cls-2{fill:#53afbe;}.cls-3{fill:#fe5c36;}.cls-4{fill:#feb449;}</style></defs><title>KHRONOS_Logo_Light</title><path class="cls-1" d="M68,128.8,49.39,148.71V192.8H0V16.4H49.39V89.74L117.68,16.4h54.94L100.55,94.52,176.4,192.8h-58Z"/><path class="cls-1" d="M357.34,16.4V192.8h-49.9V124h-68V192.8H189.5V16.4h49.9V82.68h68V16.4Z"/><path class="cls-1" d="M469.73,145.93H442.51V192.8H392.62V16.4h80.64q23.92,0,41.58,7.94T542.05,47q9.57,14.74,9.58,34.65,0,19.15-9,33.39t-25.58,22.3l38.06,55.44H501.73Zm23.69-83.41q-7.82-6.81-23.19-6.8H442.51v51.66h27.72q15.38,0,23.19-6.68t7.81-19Q501.23,69.32,493.42,62.52Z"/><path class="cls-1" d="M617.78,184.49a88.94,88.94,0,0,1-35-32.76Q570,130.82,570,104.6t12.73-47.12a89,89,0,0,1,35-32.76q22.29-11.83,50.27-11.84t50.27,11.84a89,89,0,0,1,35,32.76q12.72,20.93,12.73,47.12t-12.73,47.13a88.94,88.94,0,0,1-35,32.76Q696,196.34,668.05,196.33T617.78,184.49Zm74.46-35.78a45.39,45.39,0,0,0,17.14-17.77q6.29-11.46,6.3-26.34a53.91,53.91,0,0,0-6.3-26.33A45.46,45.46,0,0,0,692.24,60.5a49.66,49.66,0,0,0-48.38,0,45.39,45.39,0,0,0-17.14,17.77q-6.3,11.48-6.3,26.33t6.3,26.34a45.32,45.32,0,0,0,17.14,17.77,49.66,49.66,0,0,0,48.38,0Z"/><path class="cls-1" d="M960.12,16.4V192.8H919l-77.87-94v94H792.28V16.4h41.08l77.87,94v-94Z"/><path class="cls-1" d="M1235.79,191q-20.16-5.29-32.76-14.11l16.38-36.79a105.87,105.87,0,0,0,27.47,12.6,104.56,104.56,0,0,0,30.74,4.78q28.74,0,28.73-14.36,0-7.56-8.19-11.21t-26.33-7.69a249.82,249.82,0,0,1-33.27-9.2,55.87,55.87,0,0,1-22.93-15.75q-9.57-10.83-9.57-29.23A50.57,50.57,0,0,1,1214.88,41q8.8-13,26.33-20.53t43-7.56a151.81,151.81,0,0,1,34.27,3.9,105.07,105.07,0,0,1,29.73,11.47l-15.37,37q-25.2-13.61-48.89-13.61-14.87,0-21.67,4.41t-6.8,11.47q0,7.06,8.06,10.58t26,7.31a244.57,244.57,0,0,1,33.39,9.2,57.8,57.8,0,0,1,22.93,15.62q9.7,10.73,9.7,29.11a49.64,49.64,0,0,1-8.82,28.73q-8.82,12.85-26.46,20.54t-42.84,7.68A163,163,0,0,1,1235.79,191Z"/><path class="cls-2" d="M1099.63,165c-32.29,0-58.56-26.51-58.56-59.1s26.27-59.09,58.56-59.09,58.56,26.51,58.56,59.09S1131.92,165,1099.63,165Zm0-106.78c-26.06,0-47.25,21.39-47.25,47.68s21.19,47.69,47.25,47.69,47.25-21.39,47.25-47.69S1125.68,58.22,1099.63,58.22Z"/><path class="cls-3" d="M1170.28,177.64a16.32,16.32,0,0,1,2.78-9.71l-1.64-1.53a95.42,95.42,0,0,1-76.37,32.21c-48.83-2.26-88.2-41.17-90.09-89-2.09-52.85,41.18-96.49,94.67-96.49q3.36,0,6.66.23v-.1a19.34,19.34,0,0,1-11-13.1c-59,2.31-106,51.14-103.62,110,2.19,55.48,48.49,100.22,105.15,101.65a109,109,0,0,0,75.07-27.16A20.44,20.44,0,0,1,1170.28,177.64Z"/><path class="cls-4" d="M1175.36,169.16l-4-3.62s-16.94-16.4-16.94-16.4-10.13-10-10.15-9.95l-37-36.25v-92A11,11,0,0,0,1095.31,0L1093,.2V108.73l37.1,36.35h0l4,3.89h0l10.12,10,.06,0,17,16.6-.13.12,10.07,9.95q2.31-2,4.49-4.06A8.41,8.41,0,0,0,1175.36,169.16Z"/></svg>