<svg id="Layer_1" height="30px" data-name="Layer 1" xmlns="http://www.w3.org/2000/svg" viewBox="0 0 186.63 211.78"><defs><style>.cls-1{fill:#53afbe;}.cls-2{fill:#fe5c36;}.cls-3{fill:#feb449;}</style></defs><title>Logo</title><path class="cls-1" d="M108.07,165c-32.29,0-58.56-26.51-58.56-59.1s26.27-59.09,58.56-59.09,58.56,26.51,58.56,59.09S140.36,165,108.07,165Zm0-106.78c-26,0-47.25,21.39-47.25,47.68s21.2,47.69,47.25,47.69,47.25-21.39,47.25-47.69S134.13,58.22,108.07,58.22Z"/><path class="cls-2" d="M178.73,177.64a16.25,16.25,0,0,1,2.78-9.71l-1.65-1.53a95.39,95.39,0,0,1-76.36,32.21c-48.84-2.26-88.2-41.17-90.1-89-2.09-52.85,41.19-96.49,94.67-96.49,2.24,0,4.47.08,6.67.23v-.1a19.29,19.29,0,0,1-11-13.1C44.73,2.43-2.24,51.26.08,110.09c2.19,55.48,48.49,100.22,105.15,101.65a108.93,108.93,0,0,0,75.07-27.16A20.2,20.2,0,0,1,178.73,177.64Z"/><path class="cls-3" d="M183.81,169.16l-4-3.62s-16.93-16.4-16.93-16.4-10.14-10-10.16-9.95l-37-36.25v-92A11,11,0,0,0,103.76,0L101.41.2V108.73l37.09,36.35h0l4,3.89h0l10.12,10,.06,0,17,16.6-.13.12,10.08,9.95q2.29-2,4.49-4.06A8.42,8.42,0,0,0,183.81,169.16Z"/></svg>